<svg width="120" height="40" viewBox="0 0 120 40" fill="none" xmlns="http://www.w3.org/2000/svg">
  <rect width="120" height="40" rx="4" fill="white"/>
  <path d="M20 20C20 14.4772 24.4772 10 30 10H90C95.5228 10 100 14.4772 100 20C100 25.5228 95.5228 30 90 30H30C24.4772 30 20 25.5228 20 20Z" fill="#F3F4F6"/>
  <path d="M35 20C35 17.2386 37.2386 15 40 15H50C52.7614 15 55 17.2386 55 20C55 22.7614 52.7614 25 50 25H40C37.2386 25 35 22.7614 35 20Z" fill="#1F3133"/>
  <path d="M60 15H85V18H60V15Z" fill="#1F3133"/>
  <path d="M60 21H80V24H60V21Z" fill="#1F3133"/>
</svg> 