<svg width="618" height="376" viewBox="0 0 618 376" fill="none" xmlns="http://www.w3.org/2000/svg">
<g clip-path="url(#clip0_21_1001)">
<path d="M618 0H0V376H618V0Z" fill="url(#paint0_linear_21_1001)"/>
<g opacity="0.2" filter="url(#filter0_f_21_1001)">
<path d="M74.5 139C110.122 139 139 110.122 139 74.5C139 38.8776 110.122 10 74.5 10C38.8776 10 10 38.8776 10 74.5C10 110.122 38.8776 139 74.5 139Z" fill="#EB7501"/>
</g>
<path d="M311.755 0V132.5H86V232.5" stroke="#1F3133" stroke-width="1.5" stroke-dasharray="4 4"/>
<path d="M198.75 132V233" stroke="#1F3133" stroke-width="1.5" stroke-dasharray="4 4"/>
<path d="M311.75 132V233" stroke="#1F3133" stroke-width="1.5" stroke-dasharray="4 4"/>
<path d="M311.5 132.4H538.5" stroke="#1F3133" stroke-width="1.5" stroke-dasharray="4 4"/>
<path d="M424.75 132V233" stroke="#1F3133" stroke-width="1.5" stroke-dasharray="4 4"/>
<path d="M537.75 132V233" stroke="#1F3133" stroke-width="1.5" stroke-dasharray="4 4"/>
<g filter="url(#filter1_d_21_1001)">
<path d="M45 232H125V312H45V232Z" fill="white"/>
<path d="M45.5 232.5H124.5V311.5H45.5V232.5Z" stroke="#1F3133" stroke-opacity="0.08"/>
</g>
<mask id="mask0_21_1001" style="mask-type:luminance" maskUnits="userSpaceOnUse" x="60" y="248" width="48" height="48">
<path d="M108 248H60V296H108V248Z" fill="white"/>
</mask>
<g mask="url(#mask0_21_1001)">
<path d="M89.6399 268.617C84.8439 271.077 79.4759 266.492 81.1479 261.368C82.8279 256.242 89.8679 255.717 92.2829 260.54C93.7899 263.499 92.6109 267.123 89.6409 268.623L89.6399 268.617ZM83.2029 249.14C88.1399 247.344 93.7889 247.437 98.0159 251.109C98.9049 251.843 99.6099 252.782 100.062 253.851C100.483 255.225 98.5619 253.709 98.3039 253.515C96.9669 252.602 95.5239 251.867 93.9999 251.319C85.6719 248.774 77.7959 253.413 72.9299 260.631C70.9449 263.811 69.4299 267.266 68.4299 270.881C68.3349 271.326 68.1959 271.757 68.0079 272.171C67.7909 272.577 67.9059 271.068 67.9059 271.023C68.0859 269.516 68.3759 268.016 68.7659 266.546C71.0229 258.68 76.0239 252.132 83.2029 249.132V249.14ZM83.2739 291.132V273.602C83.7729 273.656 84.2409 273.68 84.7419 273.68C87.0159 273.687 89.2419 273.062 91.1879 271.89V291.125C91.1879 292.775 90.8819 293.985 90.1389 294.783C89.3969 295.595 88.3439 296.042 87.2409 296.001C86.1549 296.042 85.1099 295.595 84.3809 294.783C83.6469 293.978 83.2649 292.76 83.2649 291.134L83.2739 291.132Z" fill="#1F3133"/>
</g>
<g filter="url(#filter2_d_21_1001)">
<path d="M157 232H237V312H157V232Z" fill="white"/>
<path d="M157.5 232.5H236.5V311.5H157.5V232.5Z" stroke="#1F3133" stroke-opacity="0.08"/>
</g>
<path fill-rule="evenodd" clip-rule="evenodd" d="M197 284C203.627 284 209 278.627 209 272C209 265.373 203.627 260 197 260C190.373 260 185 265.373 185 272C185 278.627 190.373 284 197 284ZM197 280C201.418 280 205 276.418 205 272C205 267.582 201.418 264 197 264C192.582 264 189 267.582 189 272C189 276.418 192.582 280 197 280Z" fill="#1F3133"/>
<path d="M209 258C207.895 258 207 258.895 207 260C207 261.105 207.895 262 209 262C210.105 262 211 261.105 211 260C211 258.895 210.105 258 209 258Z" fill="#1F3133"/>
<path fill-rule="evenodd" clip-rule="evenodd" d="M176.308 256.552C175 259.119 175 262.479 175 269.2V274.8C175 281.521 175 284.881 176.308 287.448C177.458 289.706 179.294 291.542 181.552 292.692C184.119 294 187.479 294 194.2 294H199.8C206.521 294 209.881 294 212.448 292.692C214.706 291.542 216.542 289.706 217.692 287.448C219 284.881 219 281.521 219 274.8V269.2C219 262.479 219 259.119 217.692 256.552C216.542 254.294 214.706 252.458 212.448 251.308C209.881 250 206.521 250 199.8 250H194.2C187.479 250 184.119 250 181.552 251.308C179.294 252.458 177.458 254.294 176.308 256.552ZM199.8 254H194.2C190.774 254 188.444 254.003 186.644 254.15C184.89 254.293 183.994 254.553 183.368 254.872C181.863 255.639 180.639 256.863 179.872 258.368C179.553 258.994 179.293 259.89 179.15 261.644C179.003 263.444 179 265.774 179 269.2V274.8C179 278.226 179.003 280.555 179.15 282.356C179.293 284.11 179.553 285.006 179.872 285.632C180.639 287.137 181.863 288.361 183.368 289.128C183.994 289.447 184.89 289.707 186.644 289.85C188.444 289.997 190.774 290 194.2 290H199.8C203.226 290 205.555 289.997 207.356 289.85C209.11 289.707 210.006 289.447 210.632 289.128C212.137 288.361 213.361 287.137 214.128 285.632C214.447 285.006 214.707 284.11 214.85 282.356C214.997 280.555 215 278.226 215 274.8V269.2C215 265.774 214.997 263.444 214.85 261.644C214.707 259.89 214.447 258.994 214.128 258.368C213.361 256.863 212.137 255.639 210.632 254.872C210.006 254.553 209.11 254.293 207.356 254.15C205.555 254.003 203.226 254 199.8 254Z" fill="#1F3133"/>
<g filter="url(#filter3_d_21_1001)">
<path d="M269 232H349V312H269V232Z" fill="white"/>
<path d="M269.5 232.5H348.5V311.5H269.5V232.5Z" stroke="#1F3133" stroke-opacity="0.08"/>
</g>
<path d="M298 264C299.657 264 301 262.657 301 261C301 259.343 299.657 258 298 258C296.343 258 295 259.343 295 261C295 262.657 296.343 264 298 264Z" fill="#1F3133"/>
<path d="M295 268C295 266.895 295.895 266 297 266H299C300.105 266 301 266.895 301 268V284C301 285.105 300.105 286 299 286H297C295.895 286 295 285.105 295 284V268Z" fill="#1F3133"/>
<path d="M307 286H309C310.105 286 311 285.105 311 284V275C311 272 317 270 317 274V284.001C317 285.105 317.895 286 319 286H321C322.105 286 323 285.105 323 284V272C323 268 320 266 316 266C312 266 311 269 311 269V268C311 266.895 310.105 266 309 266H307C305.895 266 305 266.895 305 268V284C305 285.105 305.895 286 307 286Z" fill="#1F3133"/>
<path fill-rule="evenodd" clip-rule="evenodd" d="M325 250C328.314 250 331 252.686 331 256V288C331 291.314 328.314 294 325 294H293C289.686 294 287 291.314 287 288V256C287 252.686 289.686 250 293 250H325ZM325 254C326.105 254 327 254.895 327 256V288C327 289.105 326.105 290 325 290H293C291.895 290 291 289.105 291 288V256C291 254.895 291.895 254 293 254H325Z" fill="#1F3133"/>
<g filter="url(#filter4_d_21_1001)">
<path d="M381 232H461V312H381V232Z" fill="white"/>
<path d="M381.5 232.5H460.5V311.5H381.5V232.5Z" stroke="#1F3133" stroke-opacity="0.08"/>
</g>
<path d="M431.275 281.238C432.961 284.11 434.629 286.95 436.295 289.786C428.917 295.33 417.44 296 408.943 289.615C399.165 282.263 397.558 269.716 402.793 260.685C408.814 250.297 420.081 248 427.335 249.684C427.139 250.103 422.794 258.951 422.794 258.951C422.794 258.951 422.451 258.973 422.256 258.977C420.112 259.066 418.515 259.556 416.803 260.424C414.925 261.386 413.316 262.785 412.116 264.498C410.916 266.212 410.161 268.188 409.919 270.254C409.666 272.348 409.961 274.472 410.776 276.424C411.466 278.074 412.441 279.539 413.748 280.777C415.754 282.677 418.141 283.853 420.908 284.242C423.528 284.612 426.047 284.246 428.408 283.081C429.294 282.645 430.047 282.164 430.928 281.503C431.04 281.431 431.14 281.341 431.275 281.238Z" fill="#1F3133"/>
<path d="M431.292 256.051C430.863 255.637 430.467 255.256 430.072 254.872C429.836 254.643 429.609 254.405 429.368 254.182C429.281 254.101 429.18 253.991 429.18 253.991C429.18 253.991 429.262 253.82 429.297 253.75C429.759 252.84 430.483 252.175 431.342 251.645C432.291 251.056 433.398 250.756 434.521 250.783C435.958 250.811 437.294 251.162 438.422 252.109C439.254 252.807 439.681 253.693 439.756 254.751C439.882 256.535 439.13 257.901 437.636 258.855C436.758 259.416 435.812 259.85 434.863 260.364C434.34 260.647 433.892 260.896 433.381 261.409C432.931 261.924 432.909 262.41 432.909 262.41L439.707 262.401V265.374H429.213V265.086C429.173 263.626 429.347 262.251 430.028 260.925C430.655 259.708 431.629 258.817 432.799 258.131C433.7 257.602 434.649 257.153 435.552 256.627C436.11 256.302 436.503 255.827 436.5 255.137C436.5 254.545 436.061 254.019 435.435 253.855C433.957 253.464 432.452 254.088 431.67 255.416C431.556 255.61 431.439 255.802 431.292 256.051ZM444.442 278.079L438.713 268.367H427.375L421.608 278.179H433.03L438.666 287.846L444.442 278.079Z" fill="#1F3133"/>
<g filter="url(#filter5_d_21_1001)">
<path d="M493 232H573V312H493V232Z" fill="white"/>
<path d="M493.5 232.5H572.5V311.5H493.5V232.5Z" stroke="#1F3133" stroke-opacity="0.08"/>
</g>
<path d="M533.984 249.543C536.44 249.506 538.877 249.525 541.313 249.506C541.394 252.552 542.63 255.294 544.597 257.325L544.594 257.322C546.71 259.229 549.464 260.465 552.5 260.675L552.542 260.678V268.232C549.674 268.16 546.977 267.498 544.546 266.361L544.669 266.412C543.493 265.847 542.498 265.266 541.553 264.618L541.631 264.669C541.613 270.143 541.649 275.616 541.594 281.07C541.439 283.85 540.515 286.385 539.033 288.501L539.063 288.455C536.585 292.004 532.571 294.333 528.007 294.471H527.986C527.801 294.48 527.584 294.485 527.365 294.485C524.77 294.485 522.344 293.762 520.277 292.506L520.337 292.541C516.575 290.277 513.98 286.404 513.5 281.9L513.494 281.838C513.457 280.901 513.439 279.963 513.476 279.045C514.211 271.877 520.217 266.331 527.518 266.331C528.338 266.331 529.142 266.402 529.924 266.535L529.84 266.523C529.877 269.297 529.765 272.072 529.765 274.845C529.13 274.616 528.398 274.482 527.635 274.482C524.833 274.482 522.449 276.273 521.567 278.774L521.554 278.819C521.354 279.459 521.239 280.196 521.239 280.958C521.239 281.267 521.258 281.573 521.294 281.873L521.291 281.837C521.789 284.906 524.42 287.222 527.593 287.222C527.684 287.222 527.774 287.22 527.864 287.216H527.851C530.045 287.15 531.95 285.969 533.027 284.225L533.042 284.198C533.443 283.64 533.717 282.965 533.809 282.231L533.81 282.21C533.998 278.855 533.923 275.519 533.941 272.163C533.959 264.609 533.923 257.073 533.978 249.539L533.984 249.543Z" fill="#1F3133"/>
</g>
<defs>
<filter id="filter0_f_21_1001" x="-140" y="-140" width="429" height="429" filterUnits="userSpaceOnUse" color-interpolation-filters="sRGB">
<feFlood flood-opacity="0" result="BackgroundImageFix"/>
<feBlend mode="normal" in="SourceGraphic" in2="BackgroundImageFix" result="shape"/>
<feGaussianBlur stdDeviation="75" result="effect1_foregroundBlur_21_1001"/>
</filter>
<filter id="filter1_d_21_1001" x="31" y="224" width="112" height="112" filterUnits="userSpaceOnUse" color-interpolation-filters="sRGB">
<feFlood flood-opacity="0" result="BackgroundImageFix"/>
<feColorMatrix in="SourceAlpha" type="matrix" values="0 0 0 0 0 0 0 0 0 0 0 0 0 0 0 0 0 0 127 0" result="hardAlpha"/>
<feOffset dx="2" dy="8"/>
<feGaussianBlur stdDeviation="8"/>
<feComposite in2="hardAlpha" operator="out"/>
<feColorMatrix type="matrix" values="0 0 0 0 0.808333 0 0 0 0 0.808333 0 0 0 0 0.808333 0 0 0 0.06 0"/>
<feBlend mode="normal" in2="BackgroundImageFix" result="effect1_dropShadow_21_1001"/>
<feBlend mode="normal" in="SourceGraphic" in2="effect1_dropShadow_21_1001" result="shape"/>
</filter>
<filter id="filter2_d_21_1001" x="143" y="224" width="112" height="112" filterUnits="userSpaceOnUse" color-interpolation-filters="sRGB">
<feFlood flood-opacity="0" result="BackgroundImageFix"/>
<feColorMatrix in="SourceAlpha" type="matrix" values="0 0 0 0 0 0 0 0 0 0 0 0 0 0 0 0 0 0 127 0" result="hardAlpha"/>
<feOffset dx="2" dy="8"/>
<feGaussianBlur stdDeviation="8"/>
<feComposite in2="hardAlpha" operator="out"/>
<feColorMatrix type="matrix" values="0 0 0 0 0.808333 0 0 0 0 0.808333 0 0 0 0 0.808333 0 0 0 0.06 0"/>
<feBlend mode="normal" in2="BackgroundImageFix" result="effect1_dropShadow_21_1001"/>
<feBlend mode="normal" in="SourceGraphic" in2="effect1_dropShadow_21_1001" result="shape"/>
</filter>
<filter id="filter3_d_21_1001" x="255" y="224" width="112" height="112" filterUnits="userSpaceOnUse" color-interpolation-filters="sRGB">
<feFlood flood-opacity="0" result="BackgroundImageFix"/>
<feColorMatrix in="SourceAlpha" type="matrix" values="0 0 0 0 0 0 0 0 0 0 0 0 0 0 0 0 0 0 127 0" result="hardAlpha"/>
<feOffset dx="2" dy="8"/>
<feGaussianBlur stdDeviation="8"/>
<feComposite in2="hardAlpha" operator="out"/>
<feColorMatrix type="matrix" values="0 0 0 0 0.808333 0 0 0 0 0.808333 0 0 0 0 0.808333 0 0 0 0.06 0"/>
<feBlend mode="normal" in2="BackgroundImageFix" result="effect1_dropShadow_21_1001"/>
<feBlend mode="normal" in="SourceGraphic" in2="effect1_dropShadow_21_1001" result="shape"/>
</filter>
<filter id="filter4_d_21_1001" x="367" y="224" width="112" height="112" filterUnits="userSpaceOnUse" color-interpolation-filters="sRGB">
<feFlood flood-opacity="0" result="BackgroundImageFix"/>
<feColorMatrix in="SourceAlpha" type="matrix" values="0 0 0 0 0 0 0 0 0 0 0 0 0 0 0 0 0 0 127 0" result="hardAlpha"/>
<feOffset dx="2" dy="8"/>
<feGaussianBlur stdDeviation="8"/>
<feComposite in2="hardAlpha" operator="out"/>
<feColorMatrix type="matrix" values="0 0 0 0 0.808333 0 0 0 0 0.808333 0 0 0 0 0.808333 0 0 0 0.06 0"/>
<feBlend mode="normal" in2="BackgroundImageFix" result="effect1_dropShadow_21_1001"/>
<feBlend mode="normal" in="SourceGraphic" in2="effect1_dropShadow_21_1001" result="shape"/>
</filter>
<filter id="filter5_d_21_1001" x="479" y="224" width="112" height="112" filterUnits="userSpaceOnUse" color-interpolation-filters="sRGB">
<feFlood flood-opacity="0" result="BackgroundImageFix"/>
<feColorMatrix in="SourceAlpha" type="matrix" values="0 0 0 0 0 0 0 0 0 0 0 0 0 0 0 0 0 0 127 0" result="hardAlpha"/>
<feOffset dx="2" dy="8"/>
<feGaussianBlur stdDeviation="8"/>
<feComposite in2="hardAlpha" operator="out"/>
<feColorMatrix type="matrix" values="0 0 0 0 0.808333 0 0 0 0 0.808333 0 0 0 0 0.808333 0 0 0 0.06 0"/>
<feBlend mode="normal" in2="BackgroundImageFix" result="effect1_dropShadow_21_1001"/>
<feBlend mode="normal" in="SourceGraphic" in2="effect1_dropShadow_21_1001" result="shape"/>
</filter>
<linearGradient id="paint0_linear_21_1001" x1="48" y1="-7.33296e-06" x2="543.5" y2="343.5" gradientUnits="userSpaceOnUse">
<stop stop-color="#FEF7F0"/>
<stop offset="1" stop-color="#FFFCFA"/>
</linearGradient>
<clipPath id="clip0_21_1001">
<rect width="618" height="376" fill="white"/>
</clipPath>
</defs>
</svg>
