<svg width="618" height="376" viewBox="0 0 618 376" fill="none" xmlns="http://www.w3.org/2000/svg">
<g clip-path="url(#clip0_22_1032)">
<path d="M618 0H0V376H618V0Z" fill="url(#paint0_linear_22_1032)"/>
<g opacity="0.2" filter="url(#filter0_f_22_1032)">
<path d="M126 283C176.81 283 218 241.81 218 191C218 140.19 176.81 99 126 99C75.1898 99 34 140.19 34 191C34 241.81 75.1898 283 126 283Z" fill="#EB7501"/>
</g>
<path d="M86 64H66C64.8954 64 64 64.8954 64 66V86C64 87.1046 64.8954 88 66 88H86C87.1046 88 88 87.1046 88 86V66C88 64.8954 87.1046 64 86 64Z" fill="#EB7501"/>
<path d="M74.5 71C73.19 71 72.125 72.065 72.125 73.375C72.125 74.66 73.13 75.7 74.44 75.745C74.48 75.74 74.52 75.74 74.55 75.745C74.56 75.745 74.565 75.745 74.575 75.745C74.58 75.745 74.58 75.745 74.585 75.745C75.865 75.7 76.87 74.66 76.875 73.375C76.875 72.065 75.81 71 74.5 71Z" fill="white"/>
<path d="M77.04 77.0749C75.645 76.1449 73.37 76.1449 71.965 77.0749C71.33 77.4999 70.98 78.0749 70.98 78.6899C70.98 79.3049 71.33 79.8749 71.96 80.2949C72.66 80.7649 73.58 80.9999 74.5 80.9999C75.42 80.9999 76.34 80.7649 77.04 80.2949C77.67 79.8699 78.02 79.2999 78.02 78.6799C78.015 78.0649 77.67 77.4949 77.04 77.0749Z" fill="white"/>
<path d="M79.9952 73.67C80.0752 74.64 79.3852 75.49 78.4302 75.605C78.4252 75.605 78.4252 75.605 78.4202 75.605H78.4052C78.3752 75.605 78.3452 75.605 78.3202 75.615C77.8352 75.64 77.3902 75.485 77.0552 75.2C77.5702 74.74 77.8652 74.05 77.8052 73.3C77.7702 72.895 77.6302 72.525 77.4202 72.21C77.6102 72.115 77.8302 72.0551 78.0552 72.0351C79.0352 71.9501 79.9102 72.68 79.9952 73.67Z" fill="white"/>
<path d="M80.9951 78.295C80.9551 78.78 80.6451 79.2 80.1251 79.485C79.6251 79.76 78.9951 79.89 78.3701 79.875C78.7301 79.55 78.9401 79.145 78.9801 78.715C79.0301 78.095 78.7351 77.4999 78.1451 77.0249C77.8101 76.7599 77.4201 76.55 76.9951 76.395C78.1001 76.075 79.4901 76.29 80.3451 76.98C80.8051 77.35 81.0401 77.815 80.9951 78.295Z" fill="white"/>
<path opacity="0.8" d="M97.5742 81.9999V70.7999H102.278C102.972 70.7999 103.58 70.9229 104.102 71.1679C104.636 71.4029 105.046 71.7439 105.334 72.1919C105.633 72.6399 105.782 73.1729 105.782 73.7919V73.9679C105.782 74.6719 105.612 75.2369 105.27 75.6639C104.94 76.0799 104.534 76.3729 104.054 76.5439V76.7999C104.46 76.8209 104.785 76.9599 105.03 77.2159C105.276 77.4609 105.398 77.8189 105.398 78.2879V81.9999H103.654V78.5279C103.654 78.2399 103.58 78.0109 103.43 77.8399C103.281 77.6689 103.041 77.5839 102.71 77.5839H99.3022V81.9999H97.5742ZM99.3022 76.0159H102.086C102.705 76.0159 103.185 75.8609 103.526 75.5519C103.868 75.2319 104.038 74.7999 104.038 74.2559V74.1279C104.038 73.5839 103.868 73.1569 103.526 72.8479C103.196 72.5279 102.716 72.3679 102.086 72.3679H99.3022V76.0159ZM110.756 82.1439C110.158 82.1439 109.625 82.0109 109.156 81.7439C108.686 81.4769 108.318 81.0989 108.052 80.6079C107.785 80.1169 107.652 79.5309 107.652 78.8479V74.1119H109.3V78.7359C109.3 79.4189 109.47 79.9249 109.812 80.2559C110.153 80.5759 110.628 80.7359 111.236 80.7359C111.908 80.7359 112.446 80.5119 112.852 80.0639C113.268 79.6049 113.476 78.9489 113.476 78.0959V74.1119H115.124V81.9999H113.508V80.8159H113.252C113.102 81.1359 112.836 81.4399 112.452 81.7279C112.068 82.0049 111.502 82.1439 110.756 82.1439ZM122.12 82.2239C121.352 82.2239 120.76 82.0849 120.344 81.8079C119.938 81.5309 119.634 81.2209 119.432 80.8799H119.176V81.9999H117.56V70.7999H119.208V75.1839H119.464C119.592 74.9709 119.762 74.7679 119.976 74.5759C120.189 74.3729 120.472 74.2079 120.824 74.0799C121.176 73.9519 121.608 73.8879 122.12 73.8879C122.781 73.8879 123.389 74.0479 123.944 74.3679C124.498 74.6879 124.941 75.1519 125.272 75.7599C125.602 76.3679 125.768 77.0929 125.768 77.9359V78.1759C125.768 79.0289 125.597 79.7599 125.256 80.3679C124.925 80.9649 124.482 81.4239 123.928 81.7439C123.384 82.0639 122.781 82.2239 122.12 82.2239ZM121.64 80.7839C122.354 80.7839 122.941 80.5549 123.4 80.0959C123.869 79.6369 124.104 78.9809 124.104 78.1279V77.9839C124.104 77.1409 123.874 76.4909 123.416 76.0319C122.957 75.5729 122.365 75.3439 121.64 75.3439C120.936 75.3439 120.349 75.5729 119.88 76.0319C119.421 76.4909 119.192 77.1409 119.192 77.9839V78.1279C119.192 78.9809 119.421 79.6369 119.88 80.0959C120.349 80.5549 120.936 80.7839 121.64 80.7839ZM128.722 85.1999V83.7599H133.122C133.42 83.7599 133.57 83.5999 133.57 83.2799V80.8479H133.314C133.218 81.0609 133.068 81.2689 132.866 81.4719C132.674 81.6639 132.412 81.8239 132.082 81.9519C131.751 82.0799 131.335 82.1439 130.834 82.1439C130.236 82.1439 129.703 82.0109 129.234 81.7439C128.764 81.4769 128.396 81.0989 128.13 80.6079C127.863 80.1169 127.73 79.5359 127.73 78.8639V74.1119H129.378V78.7359C129.378 79.4189 129.548 79.9249 129.89 80.2559C130.231 80.5759 130.706 80.7359 131.314 80.7359C131.986 80.7359 132.524 80.5119 132.93 80.0639C133.346 79.6159 133.554 78.9649 133.554 78.1119V74.1119H135.202V83.6159C135.202 84.0959 135.058 84.4799 134.77 84.7679C134.492 85.0559 134.108 85.1999 133.618 85.1999H128.722ZM137.654 84.1759V83.2319H138.198C138.635 83.2319 138.854 83.0129 138.854 82.5759V82.0639H138.614C138.241 82.0639 137.931 81.9519 137.686 81.7279C137.441 81.5039 137.318 81.2209 137.318 80.8799C137.318 80.5069 137.441 80.2079 137.686 79.9839C137.931 79.7489 138.241 79.6319 138.614 79.6319C138.987 79.6319 139.291 79.7549 139.526 79.9999C139.771 80.2349 139.894 80.5439 139.894 80.9279V82.5919C139.894 83.6479 139.366 84.1759 138.31 84.1759H137.654ZM148.551 81.9999C148.071 81.9999 147.687 81.8559 147.399 81.5679C147.122 81.2799 146.983 80.8959 146.983 80.4159V75.5039H144.807V74.1119H146.983V71.5039H148.631V74.1119H150.983V75.5039H148.631V80.1279C148.631 80.4479 148.78 80.6079 149.079 80.6079H150.727V81.9999H148.551ZM152.919 81.9999V70.7999H154.567V75.2319H154.823C154.93 75.0289 155.079 74.8319 155.271 74.6399C155.474 74.4479 155.735 74.2929 156.055 74.1759C156.386 74.0479 156.802 73.9839 157.303 73.9839C157.9 73.9839 158.428 74.1169 158.887 74.3839C159.356 74.6509 159.724 75.0289 159.991 75.5199C160.258 75.9999 160.391 76.5809 160.391 77.2639V81.9999H158.743V77.3919C158.743 76.7089 158.572 76.2079 158.231 75.8879C157.89 75.5569 157.42 75.3919 156.823 75.3919C156.14 75.3919 155.591 75.6159 155.175 76.0639C154.77 76.5119 154.567 77.1629 154.567 78.0159V81.9999H152.919ZM166.379 82.2239C165.579 82.2239 164.88 82.0589 164.283 81.7279C163.686 81.3869 163.216 80.9119 162.875 80.3039C162.544 79.6849 162.379 78.9709 162.379 78.1599V77.9679C162.379 77.1469 162.544 76.4319 162.875 75.8239C163.206 75.2049 163.664 74.7309 164.251 74.3999C164.848 74.0589 165.536 73.8879 166.315 73.8879C167.072 73.8879 167.734 74.0589 168.299 74.3999C168.875 74.7309 169.323 75.1949 169.643 75.7919C169.963 76.3889 170.123 77.0879 170.123 77.8879V78.5119H164.059C164.08 79.2049 164.31 79.7599 164.747 80.1759C165.195 80.5809 165.75 80.7839 166.411 80.7839C167.03 80.7839 167.494 80.6449 167.803 80.3679C168.123 80.0909 168.368 79.7709 168.539 79.4079L169.899 80.1119C169.75 80.4109 169.531 80.7249 169.243 81.0559C168.966 81.3869 168.598 81.6639 168.139 81.8879C167.68 82.1119 167.094 82.2239 166.379 82.2239ZM164.075 77.2479H168.443C168.4 76.6509 168.187 76.1869 167.803 75.8559C167.419 75.5149 166.918 75.3439 166.299 75.3439C165.68 75.3439 165.174 75.5149 164.779 75.8559C164.395 76.1869 164.16 76.6509 164.075 77.2479ZM176.137 81.9999V70.7999H177.865V80.4319H183.257V81.9999H176.137ZM188.473 82.2239C187.673 82.2239 186.974 82.0589 186.377 81.7279C185.779 81.3869 185.31 80.9119 184.969 80.3039C184.638 79.6849 184.473 78.9709 184.473 78.1599V77.9679C184.473 77.1469 184.638 76.4319 184.969 75.8239C185.299 75.2049 185.758 74.7309 186.345 74.3999C186.942 74.0589 187.63 73.8879 188.409 73.8879C189.166 73.8879 189.827 74.0589 190.393 74.3999C190.969 74.7309 191.417 75.1949 191.737 75.7919C192.057 76.3889 192.217 77.0879 192.217 77.8879V78.5119H186.153C186.174 79.2049 186.403 79.7599 186.841 80.1759C187.289 80.5809 187.843 80.7839 188.505 80.7839C189.123 80.7839 189.587 80.6449 189.897 80.3679C190.217 80.0909 190.462 79.7709 190.633 79.4079L191.993 80.1119C191.843 80.4109 191.625 80.7249 191.337 81.0559C191.059 81.3869 190.691 81.6639 190.233 81.8879C189.774 82.1119 189.187 82.2239 188.473 82.2239ZM186.169 77.2479H190.537C190.494 76.6509 190.281 76.1869 189.897 75.8559C189.513 75.5149 189.011 75.3439 188.393 75.3439C187.774 75.3439 187.267 75.5149 186.873 75.8559C186.489 76.1869 186.254 76.6509 186.169 77.2479ZM196.648 82.2239C196.083 82.2239 195.576 82.1279 195.128 81.9359C194.691 81.7439 194.339 81.4609 194.072 81.0879C193.816 80.7149 193.688 80.2609 193.688 79.7279C193.688 79.1839 193.816 78.7359 194.072 78.3839C194.339 78.0209 194.696 77.7489 195.144 77.5679C195.603 77.3869 196.12 77.2959 196.696 77.2959H199.096V76.7839C199.096 76.3249 198.958 75.9569 198.68 75.6799C198.403 75.4029 197.976 75.2639 197.4 75.2639C196.835 75.2639 196.403 75.3969 196.104 75.6639C195.806 75.9309 195.608 76.2769 195.512 76.7039L193.976 76.2079C194.104 75.7809 194.307 75.3969 194.584 75.0559C194.872 74.7039 195.251 74.4209 195.72 74.2079C196.19 73.9949 196.755 73.8879 197.416 73.8879C198.44 73.8879 199.246 74.1489 199.832 74.6719C200.419 75.1949 200.712 75.9359 200.712 76.8959V80.1439C200.712 80.4639 200.862 80.6239 201.16 80.6239H201.832V81.9999H200.6C200.227 81.9999 199.923 81.9039 199.688 81.7119C199.454 81.5199 199.336 81.2589 199.336 80.9279V80.8799H199.096C199.011 81.0399 198.883 81.2269 198.712 81.4399C198.542 81.6529 198.291 81.8399 197.96 81.9999C197.63 82.1489 197.192 82.2239 196.648 82.2239ZM196.888 80.8639C197.55 80.8639 198.083 80.6769 198.488 80.3039C198.894 79.9199 199.096 79.3969 199.096 78.7359V78.5759H196.792C196.355 78.5759 196.003 78.6719 195.736 78.8639C195.47 79.0449 195.336 79.3169 195.336 79.6799C195.336 80.0429 195.475 80.3309 195.752 80.5439C196.03 80.7569 196.408 80.8639 196.888 80.8639ZM206.511 82.2239C205.861 82.2239 205.258 82.0639 204.703 81.7439C204.149 81.4239 203.701 80.9649 203.359 80.3679C203.029 79.7599 202.863 79.0289 202.863 78.1759V77.9359C202.863 77.0929 203.029 76.3679 203.359 75.7599C203.69 75.1519 204.133 74.6879 204.687 74.3679C205.242 74.0479 205.85 73.8879 206.511 73.8879C207.023 73.8879 207.45 73.9519 207.791 74.0799C208.143 74.2079 208.431 74.3729 208.655 74.5759C208.879 74.7679 209.05 74.9709 209.167 75.1839H209.423V70.7999H211.071V81.9999H209.455V80.8799H209.199C208.997 81.2209 208.687 81.5309 208.271 81.8079C207.866 82.0849 207.279 82.2239 206.511 82.2239ZM206.975 80.7839C207.69 80.7839 208.277 80.5549 208.735 80.0959C209.205 79.6369 209.439 78.9809 209.439 78.1279V77.9839C209.439 77.1409 209.21 76.4909 208.751 76.0319C208.293 75.5729 207.701 75.3439 206.975 75.3439C206.271 75.3439 205.685 75.5729 205.215 76.0319C204.757 76.4909 204.527 77.1409 204.527 77.9839V78.1279C204.527 78.9809 204.757 79.6369 205.215 80.0959C205.685 80.5549 206.271 80.7839 206.975 80.7839ZM221.735 82.2239C220.359 82.2239 219.266 81.8399 218.455 81.0719C217.645 80.2929 217.239 79.1729 217.239 77.7119V75.0879C217.239 73.6269 217.645 72.5119 218.455 71.7439C219.266 70.9649 220.359 70.5759 221.735 70.5759C223.111 70.5759 224.205 70.9649 225.015 71.7439C225.837 72.5119 226.247 73.6269 226.247 75.0879V77.7119C226.247 79.1729 225.837 80.2929 225.015 81.0719C224.205 81.8399 223.111 82.2239 221.735 82.2239ZM221.735 80.6719C222.621 80.6719 223.303 80.4159 223.783 79.9039C224.263 79.3809 224.503 78.6719 224.503 77.7759V75.0239C224.503 74.1279 224.263 73.4239 223.783 72.9119C223.303 72.3889 222.621 72.1279 221.735 72.1279C220.871 72.1279 220.194 72.3889 219.703 72.9119C219.213 73.4239 218.967 74.1279 218.967 75.0239V77.7759C218.967 78.6719 219.213 79.3809 219.703 79.9039C220.194 80.4159 220.871 80.6719 221.735 80.6719ZM222.423 84.7359C221.965 84.7359 221.591 84.5919 221.303 84.3039C221.026 84.0269 220.887 83.6479 220.887 83.1679V81.9999H222.583V82.8799C222.583 83.1999 222.733 83.3599 223.031 83.3599H224.023V84.7359H222.423ZM231.365 82.1439C230.768 82.1439 230.234 82.0109 229.765 81.7439C229.296 81.4769 228.928 81.0989 228.661 80.6079C228.394 80.1169 228.261 79.5309 228.261 78.8479V74.1119H229.909V78.7359C229.909 79.4189 230.08 79.9249 230.421 80.2559C230.762 80.5759 231.237 80.7359 231.845 80.7359C232.517 80.7359 233.056 80.5119 233.461 80.0639C233.877 79.6049 234.085 78.9489 234.085 78.0959V74.1119H235.733V81.9999H234.117V80.8159H233.861C233.712 81.1359 233.445 81.4399 233.061 81.7279C232.677 82.0049 232.112 82.1439 231.365 82.1439ZM240.617 82.2239C240.052 82.2239 239.545 82.1279 239.097 81.9359C238.66 81.7439 238.308 81.4609 238.041 81.0879C237.785 80.7149 237.657 80.2609 237.657 79.7279C237.657 79.1839 237.785 78.7359 238.041 78.3839C238.308 78.0209 238.665 77.7489 239.113 77.5679C239.572 77.3869 240.089 77.2959 240.665 77.2959H243.065V76.7839C243.065 76.3249 242.926 75.9569 242.649 75.6799C242.372 75.4029 241.945 75.2639 241.369 75.2639C240.804 75.2639 240.372 75.3969 240.073 75.6639C239.774 75.9309 239.577 76.2769 239.481 76.7039L237.945 76.2079C238.073 75.7809 238.276 75.3969 238.553 75.0559C238.841 74.7039 239.22 74.4209 239.689 74.2079C240.158 73.9949 240.724 73.8879 241.385 73.8879C242.409 73.8879 243.214 74.1489 243.801 74.6719C244.388 75.1949 244.681 75.9359 244.681 76.8959V80.1439C244.681 80.4639 244.83 80.6239 245.129 80.6239H245.801V81.9999H244.569C244.196 81.9999 243.892 81.9039 243.657 81.7119C243.422 81.5199 243.305 81.2589 243.305 80.9279V80.8799H243.065C242.98 81.0399 242.852 81.2269 242.681 81.4399C242.51 81.6529 242.26 81.8399 241.929 81.9999C241.598 82.1489 241.161 82.2239 240.617 82.2239ZM240.857 80.8639C241.518 80.8639 242.052 80.6769 242.457 80.3039C242.862 79.9199 243.065 79.3969 243.065 78.7359V78.5759H240.761C240.324 78.5759 239.972 78.6719 239.705 78.8639C239.438 79.0449 239.305 79.3169 239.305 79.6799C239.305 80.0429 239.444 80.3309 239.721 80.5439C239.998 80.7569 240.377 80.8639 240.857 80.8639ZM247.404 81.9999V70.7999H249.052V81.9999H247.404ZM251.497 81.9999V74.1119H253.145V81.9999H251.497ZM252.329 73.0399C252.009 73.0399 251.737 72.9389 251.513 72.7359C251.3 72.5229 251.193 72.2509 251.193 71.9199C251.193 71.5889 251.3 71.3229 251.513 71.1199C251.737 70.9069 252.009 70.7999 252.329 70.7999C252.66 70.7999 252.932 70.9069 253.145 71.1199C253.359 71.3229 253.465 71.5889 253.465 71.9199C253.465 72.2509 253.359 72.5229 253.145 72.7359C252.932 72.9389 252.66 73.0399 252.329 73.0399ZM257.015 81.9999V75.5039H254.807V74.1119H257.015V72.3839C257.015 71.9039 257.159 71.5199 257.447 71.2319C257.735 70.9439 258.119 70.7999 258.599 70.7999H260.519V72.1919H259.127C258.818 72.1919 258.663 72.3519 258.663 72.6719V74.1119H262.199V75.5039H258.663V81.9999H257.015ZM262.199 81.9999V74.1119H263.847V81.9999H262.199ZM263.031 73.0879C262.711 73.0879 262.439 72.9869 262.215 72.7839C262.002 72.5709 261.895 72.2989 261.895 71.9679C261.895 71.6269 262.002 71.3549 262.215 71.1519C262.439 70.9489 262.711 70.8479 263.031 70.8479C263.351 70.8479 263.618 70.9489 263.831 71.1519C264.055 71.3549 264.167 71.6269 264.167 71.9679C264.167 72.2989 264.055 72.5709 263.831 72.7839C263.618 72.9869 263.351 73.0879 263.031 73.0879ZM269.895 82.2239C269.095 82.2239 268.396 82.0589 267.799 81.7279C267.201 81.3869 266.732 80.9119 266.391 80.3039C266.06 79.6849 265.895 78.9709 265.895 78.1599V77.9679C265.895 77.1469 266.06 76.4319 266.391 75.8239C266.721 75.2049 267.18 74.7309 267.767 74.3999C268.364 74.0589 269.052 73.8879 269.831 73.8879C270.588 73.8879 271.249 74.0589 271.815 74.3999C272.391 74.7309 272.839 75.1949 273.159 75.7919C273.479 76.3889 273.639 77.0879 273.639 77.8879V78.5119H267.575C267.596 79.2049 267.825 79.7599 268.263 80.1759C268.711 80.5809 269.265 80.7839 269.927 80.7839C270.545 80.7839 271.009 80.6449 271.319 80.3679C271.639 80.0909 271.884 79.7709 272.055 79.4079L273.415 80.1119C273.265 80.4109 273.047 80.7249 272.759 81.0559C272.481 81.3869 272.113 81.6639 271.655 81.8879C271.196 82.1119 270.609 82.2239 269.895 82.2239ZM267.591 77.2479H271.959C271.916 76.6509 271.703 76.1869 271.319 75.8559C270.935 75.5149 270.433 75.3439 269.815 75.3439C269.196 75.3439 268.689 75.5149 268.295 75.8559C267.911 76.1869 267.676 76.6509 267.591 77.2479ZM275.622 81.9999V74.1119H277.238V75.0399H277.494C277.622 74.7089 277.825 74.4689 278.102 74.3199C278.39 74.1599 278.742 74.0799 279.158 74.0799H280.102V75.5679H279.094C278.561 75.5679 278.124 75.7169 277.782 76.0159C277.441 76.3039 277.27 76.7519 277.27 77.3599V81.9999H275.622Z" fill="#1F3133"/>
<g filter="url(#filter1_d_22_1032)">
<path d="M570 108H96V186H570V108Z" fill="white"/>
<path d="M569.5 108.5H96.5V185.5H569.5V108.5Z" stroke="#1F3133" stroke-opacity="0.06"/>
<path d="M134 135H114C112.895 135 112 135.895 112 137V157C112 158.105 112.895 159 114 159H134C135.105 159 136 158.105 136 157V137C136 135.895 135.105 135 134 135Z" fill="#1F3133"/>
<path d="M128.5 152H119.5C119.295 152 119.125 151.83 119.125 151.625C119.125 151.42 119.295 151.25 119.5 151.25H128.5C128.705 151.25 128.875 151.42 128.875 151.625C128.875 151.83 128.705 152 128.5 152Z" fill="white"/>
<path d="M127.51 142.74C126.54 141.77 125.59 141.745 124.595 142.74L123.99 143.345C123.94 143.395 123.92 143.475 123.94 143.545C124.32 144.87 125.38 145.93 126.705 146.31C126.725 146.315 126.745 146.32 126.765 146.32C126.82 146.32 126.87 146.3 126.91 146.26L127.51 145.655C128.005 145.165 128.245 144.69 128.245 144.21C128.25 143.715 128.01 143.235 127.51 142.74Z" fill="white"/>
<path d="M125.805 146.765C125.66 146.695 125.52 146.625 125.385 146.545C125.275 146.48 125.17 146.41 125.065 146.335C124.98 146.28 124.88 146.2 124.785 146.12C124.775 146.115 124.74 146.085 124.7 146.045C124.535 145.905 124.35 145.725 124.185 145.525C124.17 145.515 124.145 145.48 124.11 145.435C124.06 145.375 123.975 145.275 123.9 145.16C123.84 145.085 123.77 144.975 123.705 144.865C123.625 144.73 123.555 144.595 123.485 144.455C123.393 144.258 123.135 144.2 122.982 144.353L120.17 147.165C120.105 147.23 120.045 147.355 120.03 147.44L119.76 149.355C119.71 149.695 119.805 150.015 120.015 150.23C120.195 150.405 120.445 150.5 120.715 150.5C120.775 150.5 120.835 150.495 120.895 150.485L122.815 150.215C122.905 150.2 123.03 150.14 123.09 150.075L125.906 147.259C126.057 147.108 126 146.849 125.805 146.765Z" fill="white"/>
<path d="M149.168 142V130.8H150.896V140.432H156.288V142H149.168ZM161.504 142.224C160.704 142.224 160.005 142.059 159.408 141.728C158.811 141.387 158.341 140.912 158 140.304C157.669 139.685 157.504 138.971 157.504 138.16V137.968C157.504 137.147 157.669 136.432 158 135.824C158.331 135.205 158.789 134.731 159.376 134.4C159.973 134.059 160.661 133.888 161.44 133.888C162.197 133.888 162.859 134.059 163.424 134.4C164 134.731 164.448 135.195 164.768 135.792C165.088 136.389 165.248 137.088 165.248 137.888V138.512H159.184C159.205 139.205 159.435 139.76 159.872 140.176C160.32 140.581 160.875 140.784 161.536 140.784C162.155 140.784 162.619 140.645 162.928 140.368C163.248 140.091 163.493 139.771 163.664 139.408L165.024 140.112C164.875 140.411 164.656 140.725 164.368 141.056C164.091 141.387 163.723 141.664 163.264 141.888C162.805 142.112 162.219 142.224 161.504 142.224ZM159.2 137.248H163.568C163.525 136.651 163.312 136.187 162.928 135.856C162.544 135.515 162.043 135.344 161.424 135.344C160.805 135.344 160.299 135.515 159.904 135.856C159.52 136.187 159.285 136.651 159.2 137.248ZM169.68 142.224C169.114 142.224 168.608 142.128 168.16 141.936C167.722 141.744 167.37 141.461 167.104 141.088C166.848 140.715 166.72 140.261 166.72 139.728C166.72 139.184 166.848 138.736 167.104 138.384C167.37 138.021 167.728 137.749 168.176 137.568C168.634 137.387 169.152 137.296 169.728 137.296H172.128V136.784C172.128 136.325 171.989 135.957 171.712 135.68C171.434 135.403 171.008 135.264 170.432 135.264C169.866 135.264 169.434 135.397 169.136 135.664C168.837 135.931 168.64 136.277 168.544 136.704L167.008 136.208C167.136 135.781 167.338 135.397 167.616 135.056C167.904 134.704 168.282 134.421 168.752 134.208C169.221 133.995 169.786 133.888 170.448 133.888C171.472 133.888 172.277 134.149 172.864 134.672C173.45 135.195 173.744 135.936 173.744 136.896V140.144C173.744 140.464 173.893 140.624 174.192 140.624H174.864V142H173.632C173.258 142 172.954 141.904 172.72 141.712C172.485 141.52 172.368 141.259 172.368 140.928V140.88H172.128C172.042 141.04 171.914 141.227 171.744 141.44C171.573 141.653 171.322 141.84 170.992 142C170.661 142.149 170.224 142.224 169.68 142.224ZM169.92 140.864C170.581 140.864 171.114 140.677 171.52 140.304C171.925 139.92 172.128 139.397 172.128 138.736V138.576H169.824C169.386 138.576 169.034 138.672 168.768 138.864C168.501 139.045 168.368 139.317 168.368 139.68C168.368 140.043 168.506 140.331 168.784 140.544C169.061 140.757 169.44 140.864 169.92 140.864ZM179.543 142.224C178.892 142.224 178.289 142.064 177.735 141.744C177.18 141.424 176.732 140.965 176.391 140.368C176.06 139.76 175.895 139.029 175.895 138.176V137.936C175.895 137.093 176.06 136.368 176.391 135.76C176.721 135.152 177.164 134.688 177.719 134.368C178.273 134.048 178.881 133.888 179.543 133.888C180.055 133.888 180.481 133.952 180.823 134.08C181.175 134.208 181.463 134.373 181.687 134.576C181.911 134.768 182.081 134.971 182.199 135.184H182.455V130.8H184.102V142H182.487V140.88H182.231C182.028 141.221 181.719 141.531 181.303 141.808C180.897 142.085 180.311 142.224 179.543 142.224ZM180.007 140.784C180.721 140.784 181.308 140.555 181.767 140.096C182.236 139.637 182.471 138.981 182.471 138.128V137.984C182.471 137.141 182.241 136.491 181.783 136.032C181.324 135.573 180.732 135.344 180.007 135.344C179.303 135.344 178.716 135.573 178.247 136.032C177.788 136.491 177.559 137.141 177.559 137.984V138.128C177.559 138.981 177.788 139.637 178.247 140.096C178.716 140.555 179.303 140.784 180.007 140.784ZM193.839 142.224C192.836 142.224 192.004 142 191.343 141.552C190.681 141.104 190.276 140.427 190.127 139.52L191.663 139.152C191.748 139.589 191.892 139.936 192.095 140.192C192.297 140.448 192.548 140.629 192.847 140.736C193.156 140.843 193.487 140.896 193.839 140.896C194.361 140.896 194.761 140.795 195.039 140.592C195.327 140.389 195.471 140.128 195.471 139.808C195.471 139.488 195.337 139.253 195.071 139.104C194.804 138.955 194.409 138.832 193.887 138.736L193.343 138.64C192.809 138.544 192.324 138.405 191.887 138.224C191.449 138.043 191.103 137.792 190.847 137.472C190.591 137.152 190.463 136.741 190.463 136.24C190.463 135.493 190.74 134.917 191.295 134.512C191.849 134.096 192.585 133.888 193.503 133.888C194.388 133.888 195.113 134.091 195.679 134.496C196.255 134.891 196.628 135.429 196.799 136.112L195.263 136.544C195.167 136.064 194.964 135.728 194.655 135.536C194.345 135.333 193.961 135.232 193.503 135.232C193.055 135.232 192.703 135.317 192.447 135.488C192.191 135.648 192.063 135.877 192.063 136.176C192.063 136.496 192.185 136.731 192.431 136.88C192.687 137.029 193.028 137.141 193.455 137.216L194.015 137.312C194.58 137.408 195.097 137.541 195.567 137.712C196.036 137.883 196.404 138.128 196.671 138.448C196.948 138.768 197.087 139.195 197.087 139.728C197.087 140.517 196.793 141.131 196.207 141.568C195.62 142.005 194.831 142.224 193.839 142.224ZM202.037 142.144C201.44 142.144 200.906 142.011 200.437 141.744C199.968 141.477 199.6 141.099 199.333 140.608C199.066 140.117 198.933 139.531 198.933 138.848V134.112H200.581V138.736C200.581 139.419 200.752 139.925 201.093 140.256C201.434 140.576 201.909 140.736 202.517 140.736C203.189 140.736 203.728 140.512 204.133 140.064C204.549 139.605 204.757 138.949 204.757 138.096V134.112H206.405V142H204.789V140.816H204.533C204.384 141.136 204.117 141.44 203.733 141.728C203.349 142.005 202.784 142.144 202.037 142.144ZM208.841 142V134.112H210.457V135.04H210.713C210.862 134.763 211.102 134.517 211.433 134.304C211.764 134.091 212.212 133.984 212.777 133.984C213.364 133.984 213.833 134.107 214.185 134.352C214.548 134.587 214.82 134.891 215.001 135.264H215.257C215.438 134.901 215.7 134.597 216.041 134.352C216.393 134.107 216.889 133.984 217.529 133.984C218.041 133.984 218.494 134.091 218.889 134.304C219.284 134.507 219.598 134.816 219.833 135.232C220.068 135.637 220.185 136.144 220.185 136.752V142H218.537V136.88C218.537 136.4 218.404 136.032 218.137 135.776C217.881 135.509 217.513 135.376 217.033 135.376C216.521 135.376 216.11 135.541 215.801 135.872C215.492 136.203 215.337 136.677 215.337 137.296V142H213.689V136.88C213.689 136.4 213.556 136.032 213.289 135.776C213.033 135.509 212.665 135.376 212.185 135.376C211.673 135.376 211.262 135.541 210.953 135.872C210.644 136.203 210.489 136.677 210.489 137.296V142H208.841ZM222.56 142V134.112H224.176V135.04H224.432C224.581 134.763 224.821 134.517 225.152 134.304C225.482 134.091 225.93 133.984 226.496 133.984C227.082 133.984 227.552 134.107 227.904 134.352C228.266 134.587 228.538 134.891 228.72 135.264H228.976C229.157 134.901 229.418 134.597 229.76 134.352C230.112 134.107 230.608 133.984 231.248 133.984C231.76 133.984 232.213 134.091 232.608 134.304C233.002 134.507 233.317 134.816 233.552 135.232C233.786 135.637 233.904 136.144 233.904 136.752V142H232.256V136.88C232.256 136.4 232.122 136.032 231.856 135.776C231.6 135.509 231.232 135.376 230.752 135.376C230.24 135.376 229.829 135.541 229.52 135.872C229.21 136.203 229.056 136.677 229.056 137.296V142H227.408V136.88C227.408 136.4 227.274 136.032 227.008 135.776C226.752 135.509 226.384 135.376 225.904 135.376C225.392 135.376 224.981 135.541 224.672 135.872C224.362 136.203 224.208 136.677 224.208 137.296V142H222.56ZM236.279 142V134.112H237.927V142H236.279ZM237.111 133.04C236.791 133.04 236.519 132.939 236.295 132.736C236.081 132.523 235.975 132.251 235.975 131.92C235.975 131.589 236.081 131.323 236.295 131.12C236.519 130.907 236.791 130.8 237.111 130.8C237.441 130.8 237.713 130.907 237.927 131.12C238.14 131.323 238.247 131.589 238.247 131.92C238.247 132.251 238.14 132.523 237.927 132.736C237.713 132.939 237.441 133.04 237.111 133.04ZM243.332 142C242.852 142 242.468 141.856 242.18 141.568C241.903 141.28 241.764 140.896 241.764 140.416V135.504H239.588V134.112H241.764V131.504H243.412V134.112H245.268V135.504H243.412V140.128C243.412 140.448 243.562 140.608 243.86 140.608H245.508V142H243.332ZM248.516 142C248.036 142 247.652 141.856 247.364 141.568C247.076 141.28 246.932 140.896 246.932 140.416V135.504H245.268V134.112H246.932V131.504H248.58V134.112H250.948V135.504H248.58V140.128C248.58 140.448 248.735 140.608 249.044 140.608H250.676V142H248.516ZM256.504 142.224C255.704 142.224 255.005 142.059 254.408 141.728C253.811 141.387 253.341 140.912 253 140.304C252.669 139.685 252.504 138.971 252.504 138.16V137.968C252.504 137.147 252.669 136.432 253 135.824C253.331 135.205 253.789 134.731 254.376 134.4C254.973 134.059 255.661 133.888 256.44 133.888C257.197 133.888 257.859 134.059 258.424 134.4C259 134.731 259.448 135.195 259.768 135.792C260.088 136.389 260.248 137.088 260.248 137.888V138.512H254.184C254.205 139.205 254.435 139.76 254.872 140.176C255.32 140.581 255.875 140.784 256.536 140.784C257.155 140.784 257.619 140.645 257.928 140.368C258.248 140.091 258.493 139.771 258.664 139.408L260.024 140.112C259.875 140.411 259.656 140.725 259.368 141.056C259.091 141.387 258.723 141.664 258.264 141.888C257.805 142.112 257.219 142.224 256.504 142.224ZM254.2 137.248H258.568C258.525 136.651 258.312 136.187 257.928 135.856C257.544 135.515 257.043 135.344 256.424 135.344C255.805 135.344 255.299 135.515 254.904 135.856C254.52 136.187 254.285 136.651 254.2 137.248ZM265.496 142.224C264.845 142.224 264.242 142.064 263.688 141.744C263.133 141.424 262.685 140.965 262.344 140.368C262.013 139.76 261.848 139.029 261.848 138.176V137.936C261.848 137.093 262.013 136.368 262.344 135.76C262.674 135.152 263.117 134.688 263.672 134.368C264.226 134.048 264.834 133.888 265.496 133.888C266.008 133.888 266.434 133.952 266.776 134.08C267.128 134.208 267.416 134.373 267.64 134.576C267.864 134.768 268.034 134.971 268.152 135.184H268.408V130.8H270.056V142H268.44V140.88H268.184C267.981 141.221 267.672 141.531 267.256 141.808C266.85 142.085 266.264 142.224 265.496 142.224ZM265.96 140.784C266.674 140.784 267.261 140.555 267.72 140.096C268.189 139.637 268.424 138.981 268.424 138.128V137.984C268.424 137.141 268.194 136.491 267.736 136.032C267.277 135.573 266.685 135.344 265.96 135.344C265.256 135.344 264.669 135.573 264.2 136.032C263.741 136.491 263.512 137.141 263.512 137.984V138.128C263.512 138.981 263.741 139.637 264.2 140.096C264.669 140.555 265.256 140.784 265.96 140.784ZM277.984 142V135.504H275.776V134.112H277.984V132.384C277.984 131.904 278.128 131.52 278.416 131.232C278.704 130.944 279.088 130.8 279.568 130.8H281.6V132.192H280.096C279.786 132.192 279.632 132.352 279.632 132.672V134.112H281.904V135.504H279.632V142H277.984ZM286.959 142.224C286.17 142.224 285.466 142.064 284.847 141.744C284.239 141.413 283.759 140.944 283.407 140.336C283.055 139.728 282.879 139.008 282.879 138.176V137.936C282.879 137.104 283.055 136.389 283.407 135.792C283.759 135.184 284.239 134.715 284.847 134.384C285.466 134.053 286.17 133.888 286.959 133.888C287.748 133.888 288.452 134.053 289.071 134.384C289.69 134.715 290.175 135.184 290.527 135.792C290.879 136.389 291.055 137.104 291.055 137.936V138.176C291.055 139.008 290.879 139.728 290.527 140.336C290.175 140.944 289.69 141.413 289.071 141.744C288.452 142.064 287.748 142.224 286.959 142.224ZM286.959 140.752C287.684 140.752 288.271 140.523 288.719 140.064C289.178 139.595 289.407 138.949 289.407 138.128V137.984C289.407 137.163 289.183 136.523 288.735 136.064C288.287 135.595 287.695 135.36 286.959 135.36C286.244 135.36 285.658 135.595 285.199 136.064C284.751 136.523 284.527 137.163 284.527 137.984V138.128C284.527 138.949 284.751 139.595 285.199 140.064C285.658 140.523 286.244 140.752 286.959 140.752ZM293.107 142V134.112H294.723V135.04H294.979C295.107 134.709 295.309 134.469 295.587 134.32C295.875 134.16 296.227 134.08 296.643 134.08H297.587V135.568H296.579C296.045 135.568 295.608 135.717 295.267 136.016C294.925 136.304 294.755 136.752 294.755 137.36V142H293.107ZM299.294 142V134.112H300.91V135.04H301.166C301.315 134.763 301.555 134.517 301.886 134.304C302.217 134.091 302.665 133.984 303.23 133.984C303.817 133.984 304.286 134.107 304.638 134.352C305.001 134.587 305.273 134.891 305.454 135.264H305.71C305.891 134.901 306.153 134.597 306.494 134.352C306.846 134.107 307.342 133.984 307.982 133.984C308.494 133.984 308.947 134.091 309.342 134.304C309.737 134.507 310.051 134.816 310.286 135.232C310.521 135.637 310.638 136.144 310.638 136.752V142H308.99V136.88C308.99 136.4 308.857 136.032 308.59 135.776C308.334 135.509 307.966 135.376 307.486 135.376C306.974 135.376 306.563 135.541 306.254 135.872C305.945 136.203 305.79 136.677 305.79 137.296V142H304.142V136.88C304.142 136.4 304.009 136.032 303.742 135.776C303.486 135.509 303.118 135.376 302.638 135.376C302.126 135.376 301.715 135.541 301.406 135.872C301.097 136.203 300.942 136.677 300.942 137.296V142H299.294Z" fill="#1F3133"/>
<path opacity="0.8" d="M149.078 165V155.2H153.278C153.922 155.2 154.482 155.317 154.958 155.55C155.434 155.783 155.803 156.11 156.064 156.53C156.335 156.95 156.47 157.445 156.47 158.014C156.47 158.658 156.279 159.213 155.896 159.68C155.523 160.137 155.019 160.459 154.384 160.646L156.582 165H155.392L153.292 160.786H150.156V165H149.078ZM150.156 159.876H153.208C153.871 159.876 154.398 159.708 154.79 159.372C155.191 159.036 155.392 158.583 155.392 158.014C155.392 157.454 155.191 157.006 154.79 156.67C154.398 156.334 153.871 156.166 153.208 156.166H150.156V159.876ZM160.772 165.126C160.1 165.126 159.488 164.967 158.938 164.65C158.396 164.323 157.962 163.885 157.636 163.334C157.318 162.783 157.16 162.167 157.16 161.486C157.16 160.814 157.314 160.207 157.622 159.666C157.93 159.115 158.345 158.681 158.868 158.364C159.39 158.037 159.974 157.874 160.618 157.874C161.243 157.874 161.803 158.037 162.298 158.364C162.802 158.681 163.198 159.115 163.488 159.666C163.786 160.207 163.936 160.814 163.936 161.486V161.808H158.182C158.238 162.265 158.382 162.676 158.616 163.04C158.858 163.404 159.171 163.693 159.554 163.908C159.936 164.113 160.356 164.216 160.814 164.216C161.178 164.216 161.532 164.16 161.878 164.048C162.223 163.936 162.512 163.777 162.746 163.572L163.39 164.258C162.998 164.547 162.587 164.767 162.158 164.916C161.738 165.056 161.276 165.126 160.772 165.126ZM158.21 160.982H162.9C162.844 160.562 162.704 160.189 162.48 159.862C162.265 159.526 161.994 159.265 161.668 159.078C161.341 158.882 160.982 158.784 160.59 158.784C160.188 158.784 159.82 158.877 159.484 159.064C159.148 159.251 158.868 159.512 158.644 159.848C158.42 160.175 158.275 160.553 158.21 160.982ZM167.692 165.14C167.114 165.14 166.568 165.047 166.054 164.86C165.55 164.664 165.112 164.393 164.738 164.048L165.368 163.376C165.695 163.675 166.054 163.908 166.446 164.076C166.838 164.235 167.24 164.314 167.65 164.314C168.21 164.314 168.668 164.197 169.022 163.964C169.377 163.731 169.554 163.427 169.554 163.054C169.554 162.746 169.447 162.508 169.232 162.34C169.027 162.163 168.7 162.041 168.252 161.976L167.034 161.808C166.334 161.705 165.812 161.495 165.466 161.178C165.13 160.861 164.962 160.431 164.962 159.89C164.962 159.498 165.074 159.148 165.298 158.84C165.522 158.532 165.83 158.289 166.222 158.112C166.624 157.935 167.081 157.846 167.594 157.846C168.108 157.846 168.588 157.921 169.036 158.07C169.484 158.219 169.923 158.453 170.352 158.77L169.806 159.47C169.414 159.199 169.032 159.003 168.658 158.882C168.294 158.751 167.921 158.686 167.538 158.686C167.053 158.686 166.661 158.793 166.362 159.008C166.064 159.223 165.914 159.503 165.914 159.848C165.914 160.165 166.017 160.408 166.222 160.576C166.428 160.735 166.759 160.847 167.216 160.912L168.434 161.08C169.134 161.173 169.657 161.379 170.002 161.696C170.357 162.013 170.534 162.447 170.534 162.998C170.534 163.399 170.408 163.763 170.156 164.09C169.904 164.417 169.564 164.673 169.134 164.86C168.714 165.047 168.234 165.14 167.692 165.14ZM175.059 165.126C174.387 165.126 173.775 164.967 173.225 164.65C172.683 164.323 172.249 163.885 171.923 163.334C171.605 162.783 171.447 162.167 171.447 161.486C171.447 160.814 171.601 160.207 171.909 159.666C172.217 159.115 172.632 158.681 173.155 158.364C173.677 158.037 174.261 157.874 174.905 157.874C175.53 157.874 176.09 158.037 176.585 158.364C177.089 158.681 177.485 159.115 177.775 159.666C178.073 160.207 178.223 160.814 178.223 161.486V161.808H172.469C172.525 162.265 172.669 162.676 172.903 163.04C173.145 163.404 173.458 163.693 173.841 163.908C174.223 164.113 174.643 164.216 175.101 164.216C175.465 164.216 175.819 164.16 176.165 164.048C176.51 163.936 176.799 163.777 177.033 163.572L177.677 164.258C177.285 164.547 176.874 164.767 176.445 164.916C176.025 165.056 175.563 165.126 175.059 165.126ZM172.497 160.982H177.187C177.131 160.562 176.991 160.189 176.767 159.862C176.552 159.526 176.281 159.265 175.955 159.078C175.628 158.882 175.269 158.784 174.877 158.784C174.475 158.784 174.107 158.877 173.771 159.064C173.435 159.251 173.155 159.512 172.931 159.848C172.707 160.175 172.562 160.553 172.497 160.982ZM181.746 165.126C181.233 165.126 180.78 165.037 180.388 164.86C180.006 164.683 179.702 164.435 179.478 164.118C179.264 163.801 179.156 163.432 179.156 163.012C179.156 162.349 179.408 161.827 179.912 161.444C180.416 161.061 181.098 160.87 181.956 160.87C182.712 160.87 183.398 161.029 184.014 161.346V160.422C184.014 159.862 183.856 159.442 183.538 159.162C183.221 158.873 182.759 158.728 182.152 158.728C181.807 158.728 181.457 158.779 181.102 158.882C180.757 158.975 180.374 159.129 179.954 159.344L179.562 158.546C180.066 158.303 180.533 158.126 180.962 158.014C181.392 157.902 181.821 157.846 182.25 157.846C183.137 157.846 183.818 158.056 184.294 158.476C184.78 158.896 185.022 159.498 185.022 160.282V165H184.014V164.314C183.697 164.585 183.347 164.79 182.964 164.93C182.591 165.061 182.185 165.126 181.746 165.126ZM180.15 162.984C180.15 163.376 180.314 163.698 180.64 163.95C180.976 164.193 181.406 164.314 181.928 164.314C182.348 164.314 182.731 164.249 183.076 164.118C183.422 163.987 183.734 163.782 184.014 163.502V162.186C183.725 161.99 183.417 161.85 183.09 161.766C182.764 161.673 182.395 161.626 181.984 161.626C181.424 161.626 180.976 161.752 180.64 162.004C180.314 162.247 180.15 162.573 180.15 162.984ZM186.753 165V157.986H187.789V158.98C188.004 158.616 188.274 158.336 188.601 158.14C188.937 157.935 189.32 157.832 189.749 157.832C189.992 157.832 190.211 157.865 190.407 157.93V158.882C190.286 158.835 190.164 158.803 190.043 158.784C189.922 158.765 189.8 158.756 189.679 158.756C189.25 158.756 188.872 158.882 188.545 159.134C188.228 159.377 187.976 159.731 187.789 160.198V165H186.753ZM194.349 165.126C193.686 165.126 193.084 164.967 192.543 164.65C192.001 164.323 191.572 163.885 191.255 163.334C190.937 162.783 190.779 162.167 190.779 161.486C190.779 160.805 190.937 160.193 191.255 159.652C191.572 159.101 192.001 158.663 192.543 158.336C193.084 158.009 193.686 157.846 194.349 157.846C194.862 157.846 195.357 157.944 195.833 158.14C196.309 158.327 196.729 158.597 197.093 158.952L196.435 159.708C196.155 159.409 195.833 159.185 195.469 159.036C195.114 158.877 194.745 158.798 194.363 158.798C193.887 158.798 193.453 158.919 193.061 159.162C192.678 159.395 192.37 159.717 192.137 160.128C191.913 160.529 191.801 160.982 191.801 161.486C191.801 161.99 191.913 162.447 192.137 162.858C192.37 163.269 192.683 163.595 193.075 163.838C193.467 164.071 193.901 164.188 194.377 164.188C194.759 164.188 195.119 164.113 195.455 163.964C195.8 163.815 196.122 163.595 196.421 163.306L197.065 164.006C196.691 164.361 196.271 164.636 195.805 164.832C195.338 165.028 194.853 165.126 194.349 165.126ZM198.278 165V155.2L199.314 154.962V158.812C199.865 158.168 200.602 157.846 201.526 157.846C202.058 157.846 202.525 157.963 202.926 158.196C203.337 158.42 203.654 158.737 203.878 159.148C204.112 159.549 204.228 160.021 204.228 160.562V165H203.206V160.772C203.206 160.147 203.029 159.657 202.674 159.302C202.329 158.938 201.853 158.756 201.246 158.756C200.826 158.756 200.453 158.849 200.126 159.036C199.8 159.223 199.529 159.489 199.314 159.834V165H198.278ZM205.962 165V157.986H206.998V165H205.962ZM206.48 156.642C206.293 156.642 206.13 156.572 205.99 156.432C205.85 156.292 205.78 156.129 205.78 155.942C205.78 155.746 205.85 155.583 205.99 155.452C206.13 155.312 206.293 155.242 206.48 155.242C206.676 155.242 206.839 155.312 206.97 155.452C207.11 155.583 207.18 155.746 207.18 155.942C207.18 156.129 207.11 156.292 206.97 156.432C206.839 156.572 206.676 156.642 206.48 156.642ZM208.765 165V157.986H209.801V158.812C210.351 158.168 211.089 157.846 212.013 157.846C212.545 157.846 213.011 157.963 213.413 158.196C213.823 158.42 214.141 158.737 214.365 159.148C214.598 159.549 214.715 160.021 214.715 160.562V165H213.693V160.772C213.693 160.147 213.515 159.657 213.161 159.302C212.815 158.938 212.339 158.756 211.733 158.756C211.313 158.756 210.939 158.849 210.613 159.036C210.286 159.223 210.015 159.489 209.801 159.834V165H208.765ZM219.864 167.996C219.379 167.996 218.898 167.931 218.422 167.8C217.946 167.679 217.512 167.501 217.12 167.268L217.568 166.456C217.988 166.68 218.376 166.843 218.73 166.946C219.094 167.049 219.458 167.1 219.822 167.1C220.485 167.1 220.989 166.941 221.334 166.624C221.68 166.307 221.852 165.84 221.852 165.224V164.244C221.208 164.785 220.466 165.056 219.626 165.056C218.982 165.056 218.394 164.897 217.862 164.58C217.33 164.263 216.906 163.833 216.588 163.292C216.28 162.741 216.126 162.13 216.126 161.458C216.126 160.786 216.28 160.179 216.588 159.638C216.906 159.087 217.33 158.653 217.862 158.336C218.394 158.019 218.992 157.86 219.654 157.86C220.056 157.86 220.443 157.93 220.816 158.07C221.199 158.21 221.549 158.415 221.866 158.686V157.986H222.888V165.21C222.888 166.106 222.627 166.792 222.104 167.268C221.582 167.753 220.835 167.996 219.864 167.996ZM219.71 164.146C220.158 164.146 220.569 164.062 220.942 163.894C221.316 163.726 221.619 163.488 221.852 163.18V159.736C221.619 159.437 221.311 159.204 220.928 159.036C220.555 158.868 220.149 158.784 219.71 158.784C219.225 158.784 218.786 158.901 218.394 159.134C218.012 159.367 217.708 159.689 217.484 160.1C217.26 160.501 217.148 160.954 217.148 161.458C217.148 161.962 217.26 162.419 217.484 162.83C217.718 163.231 218.026 163.553 218.408 163.796C218.8 164.029 219.234 164.146 219.71 164.146ZM227.855 165V155.2H234.869V156.152H228.933V159.582H232.811V160.52H228.933V164.048H234.925V165H227.855ZM236.286 165V157.986H237.322V158.756C237.854 158.149 238.54 157.846 239.38 157.846C239.875 157.846 240.314 157.963 240.696 158.196C241.079 158.42 241.378 158.728 241.592 159.12C241.882 158.691 242.227 158.373 242.628 158.168C243.03 157.953 243.487 157.846 244 157.846C244.514 157.846 244.962 157.963 245.344 158.196C245.727 158.42 246.026 158.737 246.24 159.148C246.464 159.549 246.576 160.021 246.576 160.562V165H245.554V160.772C245.554 160.147 245.391 159.657 245.064 159.302C244.738 158.938 244.294 158.756 243.734 158.756C243.352 158.756 243.002 158.854 242.684 159.05C242.367 159.237 242.096 159.521 241.872 159.904C241.891 160.007 241.905 160.114 241.914 160.226C241.933 160.329 241.942 160.441 241.942 160.562V165H240.92V160.772C240.92 160.147 240.757 159.657 240.43 159.302C240.104 158.938 239.665 158.756 239.114 158.756C238.741 158.756 238.4 158.845 238.092 159.022C237.794 159.19 237.537 159.442 237.322 159.778V165H236.286ZM248.318 167.856V157.986H249.34V158.742C249.946 158.163 250.702 157.874 251.608 157.874C252.27 157.874 252.868 158.037 253.4 158.364C253.932 158.681 254.352 159.111 254.66 159.652C254.977 160.193 255.136 160.805 255.136 161.486C255.136 162.167 254.977 162.783 254.66 163.334C254.352 163.875 253.932 164.309 253.4 164.636C252.868 164.953 252.266 165.112 251.594 165.112C251.183 165.112 250.786 165.042 250.404 164.902C250.021 164.762 249.671 164.561 249.354 164.3V167.856H248.318ZM251.51 164.202C252.004 164.202 252.448 164.085 252.84 163.852C253.232 163.609 253.54 163.287 253.764 162.886C253.997 162.475 254.114 162.013 254.114 161.5C254.114 160.987 253.997 160.525 253.764 160.114C253.54 159.703 253.232 159.381 252.84 159.148C252.448 158.905 252.004 158.784 251.51 158.784C251.071 158.784 250.66 158.873 250.278 159.05C249.904 159.218 249.596 159.456 249.354 159.764V163.236C249.596 163.535 249.909 163.773 250.292 163.95C250.674 164.118 251.08 164.202 251.51 164.202ZM256.575 165V155.2L257.611 154.962V165H256.575ZM262.64 165.14C261.977 165.14 261.371 164.981 260.82 164.664C260.279 164.337 259.849 163.899 259.532 163.348C259.215 162.797 259.056 162.181 259.056 161.5C259.056 160.819 259.215 160.203 259.532 159.652C259.849 159.101 260.279 158.667 260.82 158.35C261.371 158.023 261.977 157.86 262.64 157.86C263.312 157.86 263.919 158.023 264.46 158.35C265.001 158.667 265.431 159.101 265.748 159.652C266.065 160.203 266.224 160.819 266.224 161.5C266.224 162.181 266.065 162.797 265.748 163.348C265.431 163.899 265.001 164.337 264.46 164.664C263.919 164.981 263.312 165.14 262.64 165.14ZM262.64 164.216C263.116 164.216 263.545 164.095 263.928 163.852C264.32 163.609 264.628 163.283 264.852 162.872C265.085 162.461 265.202 162.004 265.202 161.5C265.202 160.987 265.085 160.529 264.852 160.128C264.628 159.717 264.32 159.391 263.928 159.148C263.545 158.905 263.116 158.784 262.64 158.784C262.164 158.784 261.73 158.905 261.338 159.148C260.955 159.391 260.647 159.717 260.414 160.128C260.19 160.529 260.078 160.987 260.078 161.5C260.078 162.004 260.19 162.461 260.414 162.872C260.647 163.283 260.955 163.609 261.338 163.852C261.73 164.095 262.164 164.216 262.64 164.216ZM267.752 167.996C267.622 167.996 267.496 167.987 267.374 167.968C267.262 167.959 267.169 167.945 267.094 167.926V166.988C267.253 167.025 267.449 167.044 267.682 167.044C268.298 167.044 268.765 166.68 269.082 165.952L269.502 164.986L266.646 157.986H267.794L270.062 163.74L272.512 157.986H273.632L270.132 166.092C269.936 166.54 269.726 166.904 269.502 167.184C269.278 167.464 269.022 167.669 268.732 167.8C268.452 167.931 268.126 167.996 267.752 167.996ZM274.595 165V157.986H275.631V158.756C276.163 158.149 276.849 157.846 277.689 157.846C278.184 157.846 278.622 157.963 279.005 158.196C279.388 158.42 279.686 158.728 279.901 159.12C280.19 158.691 280.536 158.373 280.937 158.168C281.338 157.953 281.796 157.846 282.309 157.846C282.822 157.846 283.27 157.963 283.653 158.196C284.036 158.42 284.334 158.737 284.549 159.148C284.773 159.549 284.885 160.021 284.885 160.562V165H283.863V160.772C283.863 160.147 283.7 159.657 283.373 159.302C283.046 158.938 282.603 158.756 282.043 158.756C281.66 158.756 281.31 158.854 280.993 159.05C280.676 159.237 280.405 159.521 280.181 159.904C280.2 160.007 280.214 160.114 280.223 160.226C280.242 160.329 280.251 160.441 280.251 160.562V165H279.229V160.772C279.229 160.147 279.066 159.657 278.739 159.302C278.412 158.938 277.974 158.756 277.423 158.756C277.05 158.756 276.709 158.845 276.401 159.022C276.102 159.19 275.846 159.442 275.631 159.778V165H274.595ZM289.916 165.126C289.244 165.126 288.633 164.967 288.082 164.65C287.541 164.323 287.107 163.885 286.78 163.334C286.463 162.783 286.304 162.167 286.304 161.486C286.304 160.814 286.458 160.207 286.766 159.666C287.074 159.115 287.489 158.681 288.012 158.364C288.535 158.037 289.118 157.874 289.762 157.874C290.387 157.874 290.947 158.037 291.442 158.364C291.946 158.681 292.343 159.115 292.632 159.666C292.931 160.207 293.08 160.814 293.08 161.486V161.808H287.326C287.382 162.265 287.527 162.676 287.76 163.04C288.003 163.404 288.315 163.693 288.698 163.908C289.081 164.113 289.501 164.216 289.958 164.216C290.322 164.216 290.677 164.16 291.022 164.048C291.367 163.936 291.657 163.777 291.89 163.572L292.534 164.258C292.142 164.547 291.731 164.767 291.302 164.916C290.882 165.056 290.42 165.126 289.916 165.126ZM287.354 160.982H292.044C291.988 160.562 291.848 160.189 291.624 159.862C291.409 159.526 291.139 159.265 290.812 159.078C290.485 158.882 290.126 158.784 289.734 158.784C289.333 158.784 288.964 158.877 288.628 159.064C288.292 159.251 288.012 159.512 287.788 159.848C287.564 160.175 287.419 160.553 287.354 160.982ZM294.528 165V157.986H295.564V158.812C296.115 158.168 296.852 157.846 297.776 157.846C298.308 157.846 298.775 157.963 299.176 158.196C299.587 158.42 299.904 158.737 300.128 159.148C300.362 159.549 300.478 160.021 300.478 160.562V165H299.456V160.772C299.456 160.147 299.279 159.657 298.924 159.302C298.579 158.938 298.103 158.756 297.496 158.756C297.076 158.756 296.703 158.849 296.376 159.036C296.05 159.223 295.779 159.489 295.564 159.834V165H294.528ZM304.765 165.14C304.158 165.14 303.692 164.995 303.365 164.706C303.038 164.417 302.875 163.997 302.875 163.446V158.868H301.363V157.986H302.875V156.208L303.897 155.942V157.986H306.011V158.868H303.897V163.18C303.897 163.553 303.981 163.824 304.149 163.992C304.317 164.151 304.592 164.23 304.975 164.23C305.171 164.23 305.344 164.216 305.493 164.188C305.652 164.16 305.82 164.113 305.997 164.048V164.958C305.82 165.023 305.619 165.07 305.395 165.098C305.18 165.126 304.97 165.14 304.765 165.14ZM310.128 165V157.986H311.164V165H310.128ZM310.646 156.642C310.459 156.642 310.296 156.572 310.156 156.432C310.016 156.292 309.946 156.129 309.946 155.942C309.946 155.746 310.016 155.583 310.156 155.452C310.296 155.312 310.459 155.242 310.646 155.242C310.842 155.242 311.005 155.312 311.136 155.452C311.276 155.583 311.346 155.746 311.346 155.942C311.346 156.129 311.276 156.292 311.136 156.432C311.005 156.572 310.842 156.642 310.646 156.642ZM312.931 165V157.986H313.967V158.812C314.517 158.168 315.255 157.846 316.179 157.846C316.711 157.846 317.177 157.963 317.579 158.196C317.989 158.42 318.307 158.737 318.531 159.148C318.764 159.549 318.881 160.021 318.881 160.562V165H317.859V160.772C317.859 160.147 317.681 159.657 317.327 159.302C316.981 158.938 316.505 158.756 315.899 158.756C315.479 158.756 315.105 158.849 314.779 159.036C314.452 159.223 314.181 159.489 313.967 159.834V165H312.931ZM321.417 165V158.868H319.765V157.986H321.417V156.656C321.417 155.965 321.604 155.438 321.977 155.074C322.351 154.71 322.887 154.528 323.587 154.528C323.774 154.528 323.942 154.537 324.091 154.556C324.241 154.575 324.385 154.607 324.525 154.654V155.578C324.367 155.531 324.222 155.499 324.091 155.48C323.961 155.452 323.816 155.438 323.657 155.438C323.247 155.438 322.939 155.541 322.733 155.746C322.537 155.942 322.439 156.255 322.439 156.684V157.986H324.525V158.868H322.439V165H321.417ZM328.552 165.14C327.89 165.14 327.283 164.981 326.732 164.664C326.191 164.337 325.762 163.899 325.444 163.348C325.127 162.797 324.968 162.181 324.968 161.5C324.968 160.819 325.127 160.203 325.444 159.652C325.762 159.101 326.191 158.667 326.732 158.35C327.283 158.023 327.89 157.86 328.552 157.86C329.224 157.86 329.831 158.023 330.372 158.35C330.914 158.667 331.343 159.101 331.66 159.652C331.978 160.203 332.136 160.819 332.136 161.5C332.136 162.181 331.978 162.797 331.66 163.348C331.343 163.899 330.914 164.337 330.372 164.664C329.831 164.981 329.224 165.14 328.552 165.14ZM328.552 164.216C329.028 164.216 329.458 164.095 329.84 163.852C330.232 163.609 330.54 163.283 330.764 162.872C330.998 162.461 331.114 162.004 331.114 161.5C331.114 160.987 330.998 160.529 330.764 160.128C330.54 159.717 330.232 159.391 329.84 159.148C329.458 158.905 329.028 158.784 328.552 158.784C328.076 158.784 327.642 158.905 327.25 159.148C326.868 159.391 326.56 159.717 326.326 160.128C326.102 160.529 325.99 160.987 325.99 161.5C325.99 162.004 326.102 162.461 326.326 162.872C326.56 163.283 326.868 163.609 327.25 163.852C327.642 164.095 328.076 164.216 328.552 164.216ZM333.575 165V157.986H334.611V158.98C334.826 158.616 335.097 158.336 335.423 158.14C335.759 157.935 336.142 157.832 336.571 157.832C336.814 157.832 337.033 157.865 337.229 157.93V158.882C337.108 158.835 336.987 158.803 336.865 158.784C336.744 158.765 336.623 158.756 336.501 158.756C336.072 158.756 335.694 158.882 335.367 159.134C335.05 159.377 334.798 159.731 334.611 160.198V165H333.575ZM338.415 165V157.986H339.451V158.756C339.983 158.149 340.669 157.846 341.509 157.846C342.004 157.846 342.443 157.963 342.825 158.196C343.208 158.42 343.507 158.728 343.721 159.12C344.011 158.691 344.356 158.373 344.757 158.168C345.159 157.953 345.616 157.846 346.129 157.846C346.643 157.846 347.091 157.963 347.473 158.196C347.856 158.42 348.155 158.737 348.369 159.148C348.593 159.549 348.705 160.021 348.705 160.562V165H347.683V160.772C347.683 160.147 347.52 159.657 347.193 159.302C346.867 158.938 346.423 158.756 345.863 158.756C345.481 158.756 345.131 158.854 344.813 159.05C344.496 159.237 344.225 159.521 344.001 159.904C344.02 160.007 344.034 160.114 344.043 160.226C344.062 160.329 344.071 160.441 344.071 160.562V165H343.049V160.772C343.049 160.147 342.886 159.657 342.559 159.302C342.233 158.938 341.794 158.756 341.243 158.756C340.87 158.756 340.529 158.845 340.221 159.022C339.923 159.19 339.666 159.442 339.451 159.778V165H338.415ZM352.658 165.126C352.145 165.126 351.692 165.037 351.3 164.86C350.918 164.683 350.614 164.435 350.39 164.118C350.176 163.801 350.068 163.432 350.068 163.012C350.068 162.349 350.32 161.827 350.824 161.444C351.328 161.061 352.01 160.87 352.868 160.87C353.624 160.87 354.31 161.029 354.926 161.346V160.422C354.926 159.862 354.768 159.442 354.45 159.162C354.133 158.873 353.671 158.728 353.064 158.728C352.719 158.728 352.369 158.779 352.014 158.882C351.669 158.975 351.286 159.129 350.866 159.344L350.474 158.546C350.978 158.303 351.445 158.126 351.874 158.014C352.304 157.902 352.733 157.846 353.162 157.846C354.049 157.846 354.73 158.056 355.206 158.476C355.692 158.896 355.934 159.498 355.934 160.282V165H354.926V164.314C354.609 164.585 354.259 164.79 353.876 164.93C353.503 165.061 353.097 165.126 352.658 165.126ZM351.062 162.984C351.062 163.376 351.226 163.698 351.552 163.95C351.888 164.193 352.318 164.314 352.84 164.314C353.26 164.314 353.643 164.249 353.988 164.118C354.334 163.987 354.646 163.782 354.926 163.502V162.186C354.637 161.99 354.329 161.85 354.002 161.766C353.676 161.673 353.307 161.626 352.896 161.626C352.336 161.626 351.888 161.752 351.552 162.004C351.226 162.247 351.062 162.573 351.062 162.984ZM360.218 165.14C359.611 165.14 359.145 164.995 358.818 164.706C358.491 164.417 358.328 163.997 358.328 163.446V158.868H356.816V157.986H358.328V156.208L359.35 155.942V157.986H361.464V158.868H359.35V163.18C359.35 163.553 359.434 163.824 359.602 163.992C359.77 164.151 360.045 164.23 360.428 164.23C360.624 164.23 360.797 164.216 360.946 164.188C361.105 164.16 361.273 164.113 361.45 164.048V164.958C361.273 165.023 361.072 165.07 360.848 165.098C360.633 165.126 360.423 165.14 360.218 165.14ZM362.573 165V157.986H363.609V165H362.573ZM363.091 156.642C362.905 156.642 362.741 156.572 362.601 156.432C362.461 156.292 362.391 156.129 362.391 155.942C362.391 155.746 362.461 155.583 362.601 155.452C362.741 155.312 362.905 155.242 363.091 155.242C363.287 155.242 363.451 155.312 363.581 155.452C363.721 155.583 363.791 155.746 363.791 155.942C363.791 156.129 363.721 156.292 363.581 156.432C363.451 156.572 363.287 156.642 363.091 156.642ZM368.638 165.14C367.975 165.14 367.369 164.981 366.818 164.664C366.277 164.337 365.847 163.899 365.53 163.348C365.213 162.797 365.054 162.181 365.054 161.5C365.054 160.819 365.213 160.203 365.53 159.652C365.847 159.101 366.277 158.667 366.818 158.35C367.369 158.023 367.975 157.86 368.638 157.86C369.31 157.86 369.917 158.023 370.458 158.35C370.999 158.667 371.429 159.101 371.746 159.652C372.063 160.203 372.222 160.819 372.222 161.5C372.222 162.181 372.063 162.797 371.746 163.348C371.429 163.899 370.999 164.337 370.458 164.664C369.917 164.981 369.31 165.14 368.638 165.14ZM368.638 164.216C369.114 164.216 369.543 164.095 369.926 163.852C370.318 163.609 370.626 163.283 370.85 162.872C371.083 162.461 371.2 162.004 371.2 161.5C371.2 160.987 371.083 160.529 370.85 160.128C370.626 159.717 370.318 159.391 369.926 159.148C369.543 158.905 369.114 158.784 368.638 158.784C368.162 158.784 367.728 158.905 367.336 159.148C366.953 159.391 366.645 159.717 366.412 160.128C366.188 160.529 366.076 160.987 366.076 161.5C366.076 162.004 366.188 162.461 366.412 162.872C366.645 163.283 366.953 163.609 367.336 163.852C367.728 164.095 368.162 164.216 368.638 164.216ZM373.661 165V157.986H374.697V158.812C375.248 158.168 375.985 157.846 376.909 157.846C377.441 157.846 377.908 157.963 378.309 158.196C378.72 158.42 379.037 158.737 379.261 159.148C379.495 159.549 379.611 160.021 379.611 160.562V165H378.589V160.772C378.589 160.147 378.412 159.657 378.057 159.302C377.712 158.938 377.236 158.756 376.629 158.756C376.209 158.756 375.836 158.849 375.509 159.036C375.183 159.223 374.912 159.489 374.697 159.834V165H373.661Z" fill="#1F3133"/>
<g opacity="0.5">
<path d="M550.6 144.458L545.167 149.892C544.525 150.533 543.475 150.533 542.833 149.892L537.4 144.458" stroke="#1F3133" stroke-width="1.5" stroke-miterlimit="10" stroke-linecap="round" stroke-linejoin="round"/>
</g>
</g>
<g filter="url(#filter2_d_22_1032)">
<path d="M570 206H96V284H570V206Z" fill="white"/>
<path d="M569.5 206.5H96.5V283.5H569.5V206.5Z" stroke="#1F3133" stroke-opacity="0.06"/>
<path d="M134 233H114C112.895 233 112 233.895 112 235V255C112 256.105 112.895 257 114 257H134C135.105 257 136 256.105 136 255V235C136 233.895 135.105 233 134 233Z" fill="#1F3133"/>
<path fill-rule="evenodd" clip-rule="evenodd" d="M127.057 248.088C126.012 248.088 125.164 247.25 125.164 246.215C125.164 245.18 126.012 244.341 127.057 244.341C128.103 244.341 128.951 245.18 128.951 246.215C128.951 247.25 128.103 248.088 127.057 248.088ZM127.624 242.608V240.94C127.846 240.838 128.034 240.676 128.167 240.471C128.299 240.266 128.37 240.028 128.372 239.784V239.745C128.372 239.04 127.789 238.464 127.077 238.464H127.038C126.327 238.464 125.743 239.04 125.743 239.745V239.784C125.745 240.028 125.816 240.266 125.948 240.471C126.081 240.676 126.269 240.838 126.49 240.94V242.608C125.852 242.704 125.25 242.966 124.744 243.368L120.12 239.809C120.153 239.691 120.17 239.571 120.172 239.449C120.172 238.651 119.519 238.002 118.712 238C117.905 237.998 117.25 238.645 117.25 239.444C117.249 240.243 117.902 240.89 118.709 240.891C118.961 240.89 119.21 240.823 119.429 240.697L123.978 244.2C123.569 244.81 123.355 245.53 123.365 246.264C123.375 246.998 123.609 247.712 124.035 248.31L122.651 249.68C122.487 249.629 122.314 249.613 122.144 249.635C121.973 249.657 121.81 249.716 121.665 249.807C121.519 249.898 121.395 250.02 121.301 250.163C121.208 250.307 121.146 250.469 121.121 250.639C121.096 250.809 121.108 250.982 121.156 251.147C121.204 251.312 121.288 251.464 121.401 251.593C121.513 251.722 121.653 251.826 121.81 251.896C121.966 251.966 122.136 252.002 122.308 252C122.97 252 123.508 251.468 123.508 250.812C123.507 250.697 123.488 250.582 123.453 250.472L124.821 249.118C125.464 249.606 126.25 249.87 127.057 249.869C129.097 249.869 130.75 248.233 130.75 246.215C130.75 244.388 129.394 242.879 127.624 242.608Z" fill="white"/>
<path d="M149.168 240V228.8H150.896V233.6H155.6V228.8H157.328V240H155.6V235.168H150.896V240H149.168ZM159.716 240V232.112H161.364V240H159.716ZM160.548 231.04C160.228 231.04 159.956 230.939 159.732 230.736C159.519 230.523 159.412 230.251 159.412 229.92C159.412 229.589 159.519 229.323 159.732 229.12C159.956 228.907 160.228 228.8 160.548 228.8C160.879 228.8 161.151 228.907 161.364 229.12C161.577 229.323 161.684 229.589 161.684 229.92C161.684 230.251 161.577 230.523 161.364 230.736C161.151 230.939 160.879 231.04 160.548 231.04ZM163.426 236.096V235.856C163.426 235.024 163.591 234.315 163.922 233.728C164.263 233.141 164.711 232.688 165.266 232.368C165.82 232.048 166.428 231.888 167.09 231.888C167.858 231.888 168.444 232.032 168.85 232.32C169.266 232.608 169.57 232.917 169.762 233.248H170.018V232.112H171.618V241.616C171.618 242.096 171.474 242.48 171.186 242.768C170.908 243.056 170.524 243.2 170.034 243.2H164.722V241.76H169.522C169.831 241.76 169.986 241.6 169.986 241.28V238.768H169.73C169.612 238.96 169.447 239.157 169.234 239.36C169.02 239.563 168.738 239.728 168.386 239.856C168.044 239.984 167.612 240.048 167.09 240.048C166.428 240.048 165.815 239.893 165.25 239.584C164.695 239.264 164.252 238.811 163.922 238.224C163.591 237.627 163.426 236.917 163.426 236.096ZM167.538 238.608C168.252 238.608 168.839 238.384 169.298 237.936C169.767 237.477 170.002 236.848 170.002 236.048V235.904C170.002 235.083 169.772 234.453 169.314 234.016C168.855 233.568 168.263 233.344 167.538 233.344C166.834 233.344 166.247 233.568 165.778 234.016C165.319 234.453 165.09 235.083 165.09 235.904V236.048C165.09 236.848 165.319 237.477 165.778 237.936C166.247 238.384 166.834 238.608 167.538 238.608ZM174.044 240V228.8H175.692V233.232H175.948C176.055 233.029 176.204 232.832 176.396 232.64C176.599 232.448 176.86 232.293 177.18 232.176C177.511 232.048 177.927 231.984 178.428 231.984C179.025 231.984 179.553 232.117 180.012 232.384C180.481 232.651 180.849 233.029 181.116 233.52C181.383 234 181.516 234.581 181.516 235.264V240H179.868V235.392C179.868 234.709 179.697 234.208 179.356 233.888C179.015 233.557 178.545 233.392 177.948 233.392C177.265 233.392 176.716 233.616 176.3 234.064C175.895 234.512 175.692 235.163 175.692 236.016V240H174.044ZM183.888 240V228.8H185.536V240H183.888ZM188.894 243.2V241.76H193.294C193.592 241.76 193.742 241.6 193.742 241.28V238.848H193.486C193.39 239.061 193.24 239.269 193.038 239.472C192.846 239.664 192.584 239.824 192.254 239.952C191.923 240.08 191.507 240.144 191.006 240.144C190.408 240.144 189.875 240.011 189.406 239.744C188.936 239.477 188.568 239.099 188.302 238.608C188.035 238.117 187.902 237.536 187.902 236.864V232.112H189.55V236.736C189.55 237.419 189.72 237.925 190.062 238.256C190.403 238.576 190.878 238.736 191.486 238.736C192.158 238.736 192.696 238.512 193.102 238.064C193.518 237.616 193.726 236.965 193.726 236.112V232.112H195.374V241.616C195.374 242.096 195.23 242.48 194.942 242.768C194.664 243.056 194.28 243.2 193.79 243.2H188.894ZM208.064 243.2V238.928H207.808C207.691 239.141 207.52 239.349 207.296 239.552C207.072 239.744 206.784 239.904 206.432 240.032C206.091 240.16 205.664 240.224 205.152 240.224C204.491 240.224 203.883 240.064 203.328 239.744C202.773 239.424 202.331 238.965 202 238.368C201.669 237.76 201.504 237.029 201.504 236.176V235.936C201.504 235.083 201.669 234.357 202 233.76C202.341 233.152 202.789 232.688 203.344 232.368C203.899 232.048 204.501 231.888 205.152 231.888C205.92 231.888 206.507 232.027 206.912 232.304C207.328 232.581 207.637 232.896 207.84 233.248H208.096V232.112H209.712V243.2H208.064ZM205.616 238.784C206.341 238.784 206.933 238.555 207.392 238.096C207.851 237.637 208.08 236.981 208.08 236.128V235.984C208.08 235.141 207.845 234.491 207.376 234.032C206.917 233.573 206.331 233.344 205.616 233.344C204.912 233.344 204.325 233.573 203.856 234.032C203.397 234.491 203.168 235.141 203.168 235.984V236.128C203.168 236.981 203.397 237.637 203.856 238.096C204.325 238.555 204.912 238.784 205.616 238.784ZM215.162 240.144C214.565 240.144 214.031 240.011 213.562 239.744C213.093 239.477 212.725 239.099 212.458 238.608C212.191 238.117 212.058 237.531 212.058 236.848V232.112H213.706V236.736C213.706 237.419 213.877 237.925 214.218 238.256C214.559 238.576 215.034 238.736 215.642 238.736C216.314 238.736 216.853 238.512 217.258 238.064C217.674 237.605 217.882 236.949 217.882 236.096V232.112H219.53V240H217.914V238.816H217.658C217.509 239.136 217.242 239.44 216.858 239.728C216.474 240.005 215.909 240.144 215.162 240.144ZM224.414 240.224C223.849 240.224 223.342 240.128 222.894 239.936C222.457 239.744 222.105 239.461 221.838 239.088C221.582 238.715 221.454 238.261 221.454 237.728C221.454 237.184 221.582 236.736 221.838 236.384C222.105 236.021 222.462 235.749 222.91 235.568C223.369 235.387 223.886 235.296 224.462 235.296H226.862V234.784C226.862 234.325 226.723 233.957 226.446 233.68C226.169 233.403 225.742 233.264 225.166 233.264C224.601 233.264 224.169 233.397 223.87 233.664C223.571 233.931 223.374 234.277 223.278 234.704L221.742 234.208C221.87 233.781 222.073 233.397 222.35 233.056C222.638 232.704 223.017 232.421 223.486 232.208C223.955 231.995 224.521 231.888 225.182 231.888C226.206 231.888 227.011 232.149 227.598 232.672C228.185 233.195 228.478 233.936 228.478 234.896V238.144C228.478 238.464 228.627 238.624 228.926 238.624H229.598V240H228.366C227.993 240 227.689 239.904 227.454 239.712C227.219 239.52 227.102 239.259 227.102 238.928V238.88H226.862C226.777 239.04 226.649 239.227 226.478 239.44C226.307 239.653 226.057 239.84 225.726 240C225.395 240.149 224.958 240.224 224.414 240.224ZM224.654 238.864C225.315 238.864 225.849 238.677 226.254 238.304C226.659 237.92 226.862 237.397 226.862 236.736V236.576H224.558C224.121 236.576 223.769 236.672 223.502 236.864C223.235 237.045 223.102 237.317 223.102 237.68C223.102 238.043 223.241 238.331 223.518 238.544C223.795 238.757 224.174 238.864 224.654 238.864ZM231.2 240V228.8H232.848V240H231.2ZM235.294 240V232.112H236.942V240H235.294ZM236.126 231.04C235.806 231.04 235.534 230.939 235.31 230.736C235.097 230.523 234.99 230.251 234.99 229.92C234.99 229.589 235.097 229.323 235.31 229.12C235.534 228.907 235.806 228.8 236.126 228.8C236.457 228.8 236.729 228.907 236.942 229.12C237.155 229.323 237.262 229.589 237.262 229.92C237.262 230.251 237.155 230.523 236.942 230.736C236.729 230.939 236.457 231.04 236.126 231.04ZM240.812 240V233.504H238.604V232.112H240.812V230.384C240.812 229.904 240.956 229.52 241.244 229.232C241.532 228.944 241.916 228.8 242.396 228.8H244.316V230.192H242.924C242.615 230.192 242.46 230.352 242.46 230.672V232.112H245.996V233.504H242.46V240H240.812ZM245.996 240V232.112H247.644V240H245.996ZM246.828 231.088C246.508 231.088 246.236 230.987 246.012 230.784C245.799 230.571 245.692 230.299 245.692 229.968C245.692 229.627 245.799 229.355 246.012 229.152C246.236 228.949 246.508 228.848 246.828 228.848C247.148 228.848 247.415 228.949 247.628 229.152C247.852 229.355 247.964 229.627 247.964 229.968C247.964 230.299 247.852 230.571 247.628 230.784C247.415 230.987 247.148 231.088 246.828 231.088ZM253.691 240.224C252.891 240.224 252.193 240.059 251.595 239.728C250.998 239.387 250.529 238.912 250.187 238.304C249.857 237.685 249.691 236.971 249.691 236.16V235.968C249.691 235.147 249.857 234.432 250.187 233.824C250.518 233.205 250.977 232.731 251.563 232.4C252.161 232.059 252.849 231.888 253.627 231.888C254.385 231.888 255.046 232.059 255.611 232.4C256.187 232.731 256.635 233.195 256.955 233.792C257.275 234.389 257.435 235.088 257.435 235.888V236.512H251.371C251.393 237.205 251.622 237.76 252.059 238.176C252.507 238.581 253.062 238.784 253.723 238.784C254.342 238.784 254.806 238.645 255.115 238.368C255.435 238.091 255.681 237.771 255.851 237.408L257.211 238.112C257.062 238.411 256.843 238.725 256.555 239.056C256.278 239.387 255.91 239.664 255.451 239.888C254.993 240.112 254.406 240.224 253.691 240.224ZM251.387 235.248H255.755C255.713 234.651 255.499 234.187 255.115 233.856C254.731 233.515 254.23 233.344 253.611 233.344C252.993 233.344 252.486 233.515 252.091 233.856C251.707 234.187 251.473 234.651 251.387 235.248ZM262.683 240.224C262.032 240.224 261.43 240.064 260.875 239.744C260.32 239.424 259.872 238.965 259.531 238.368C259.2 237.76 259.035 237.029 259.035 236.176V235.936C259.035 235.093 259.2 234.368 259.531 233.76C259.862 233.152 260.304 232.688 260.859 232.368C261.414 232.048 262.022 231.888 262.683 231.888C263.195 231.888 263.622 231.952 263.963 232.08C264.315 232.208 264.603 232.373 264.827 232.576C265.051 232.768 265.222 232.971 265.339 233.184H265.595V228.8H267.243V240H265.627V238.88H265.371C265.168 239.221 264.859 239.531 264.443 239.808C264.038 240.085 263.451 240.224 262.683 240.224ZM263.147 238.784C263.862 238.784 264.448 238.555 264.907 238.096C265.376 237.637 265.611 236.981 265.611 236.128V235.984C265.611 235.141 265.382 234.491 264.923 234.032C264.464 233.573 263.872 233.344 263.147 233.344C262.443 233.344 261.856 233.573 261.387 234.032C260.928 234.491 260.699 235.141 260.699 235.984V236.128C260.699 236.981 260.928 237.637 261.387 238.096C261.856 238.555 262.443 238.784 263.147 238.784Z" fill="#1F3133"/>
<path opacity="0.8" d="M149.078 263V253.2H156.092V254.152H150.156V257.582H154.034V258.52H150.156V262.048H156.148V263H149.078ZM157.509 263V255.986H158.545V256.756C159.077 256.149 159.763 255.846 160.603 255.846C161.098 255.846 161.536 255.963 161.919 256.196C162.302 256.42 162.6 256.728 162.815 257.12C163.104 256.691 163.45 256.373 163.851 256.168C164.252 255.953 164.71 255.846 165.223 255.846C165.736 255.846 166.184 255.963 166.567 256.196C166.95 256.42 167.248 256.737 167.463 257.148C167.687 257.549 167.799 258.021 167.799 258.562V263H166.777V258.772C166.777 258.147 166.614 257.657 166.287 257.302C165.96 256.938 165.517 256.756 164.957 256.756C164.574 256.756 164.224 256.854 163.907 257.05C163.59 257.237 163.319 257.521 163.095 257.904C163.114 258.007 163.128 258.114 163.137 258.226C163.156 258.329 163.165 258.441 163.165 258.562V263H162.143V258.772C162.143 258.147 161.98 257.657 161.653 257.302C161.326 256.938 160.888 256.756 160.337 256.756C159.964 256.756 159.623 256.845 159.315 257.022C159.016 257.19 158.76 257.442 158.545 257.778V263H157.509ZM169.54 265.856V255.986H170.562V256.742C171.169 256.163 171.925 255.874 172.83 255.874C173.493 255.874 174.09 256.037 174.622 256.364C175.154 256.681 175.574 257.111 175.882 257.652C176.2 258.193 176.358 258.805 176.358 259.486C176.358 260.167 176.2 260.783 175.882 261.334C175.574 261.875 175.154 262.309 174.622 262.636C174.09 262.953 173.488 263.112 172.816 263.112C172.406 263.112 172.009 263.042 171.626 262.902C171.244 262.762 170.894 262.561 170.576 262.3V265.856H169.54ZM172.732 262.202C173.227 262.202 173.67 262.085 174.062 261.852C174.454 261.609 174.762 261.287 174.986 260.886C175.22 260.475 175.336 260.013 175.336 259.5C175.336 258.987 175.22 258.525 174.986 258.114C174.762 257.703 174.454 257.381 174.062 257.148C173.67 256.905 173.227 256.784 172.732 256.784C172.294 256.784 171.883 256.873 171.5 257.05C171.127 257.218 170.819 257.456 170.576 257.764V261.236C170.819 261.535 171.132 261.773 171.514 261.95C171.897 262.118 172.303 262.202 172.732 262.202ZM177.798 263V253.2L178.834 252.962V263H177.798ZM183.863 263.14C183.2 263.14 182.593 262.981 182.043 262.664C181.501 262.337 181.072 261.899 180.755 261.348C180.437 260.797 180.279 260.181 180.279 259.5C180.279 258.819 180.437 258.203 180.755 257.652C181.072 257.101 181.501 256.667 182.043 256.35C182.593 256.023 183.2 255.86 183.863 255.86C184.535 255.86 185.141 256.023 185.683 256.35C186.224 256.667 186.653 257.101 186.971 257.652C187.288 258.203 187.447 258.819 187.447 259.5C187.447 260.181 187.288 260.797 186.971 261.348C186.653 261.899 186.224 262.337 185.683 262.664C185.141 262.981 184.535 263.14 183.863 263.14ZM183.863 262.216C184.339 262.216 184.768 262.095 185.151 261.852C185.543 261.609 185.851 261.283 186.075 260.872C186.308 260.461 186.425 260.004 186.425 259.5C186.425 258.987 186.308 258.529 186.075 258.128C185.851 257.717 185.543 257.391 185.151 257.148C184.768 256.905 184.339 256.784 183.863 256.784C183.387 256.784 182.953 256.905 182.561 257.148C182.178 257.391 181.87 257.717 181.637 258.128C181.413 258.529 181.301 258.987 181.301 259.5C181.301 260.004 181.413 260.461 181.637 260.872C181.87 261.283 182.178 261.609 182.561 261.852C182.953 262.095 183.387 262.216 183.863 262.216ZM188.975 265.996C188.844 265.996 188.718 265.987 188.597 265.968C188.485 265.959 188.391 265.945 188.317 265.926V264.988C188.475 265.025 188.671 265.044 188.905 265.044C189.521 265.044 189.987 264.68 190.305 263.952L190.725 262.986L187.869 255.986H189.017L191.285 261.74L193.735 255.986H194.855L191.355 264.092C191.159 264.54 190.949 264.904 190.725 265.184C190.501 265.464 190.244 265.669 189.955 265.8C189.675 265.931 189.348 265.996 188.975 265.996ZM198.902 263.126C198.23 263.126 197.619 262.967 197.068 262.65C196.527 262.323 196.093 261.885 195.766 261.334C195.449 260.783 195.29 260.167 195.29 259.486C195.29 258.814 195.444 258.207 195.752 257.666C196.06 257.115 196.476 256.681 196.998 256.364C197.521 256.037 198.104 255.874 198.748 255.874C199.374 255.874 199.934 256.037 200.428 256.364C200.932 256.681 201.329 257.115 201.618 257.666C201.917 258.207 202.066 258.814 202.066 259.486V259.808H196.312C196.368 260.265 196.513 260.676 196.746 261.04C196.989 261.404 197.302 261.693 197.684 261.908C198.067 262.113 198.487 262.216 198.944 262.216C199.308 262.216 199.663 262.16 200.008 262.048C200.354 261.936 200.643 261.777 200.876 261.572L201.52 262.258C201.128 262.547 200.718 262.767 200.288 262.916C199.868 263.056 199.406 263.126 198.902 263.126ZM196.34 258.982H201.03C200.974 258.562 200.834 258.189 200.61 257.862C200.396 257.526 200.125 257.265 199.798 257.078C199.472 256.882 199.112 256.784 198.72 256.784C198.319 256.784 197.95 256.877 197.614 257.064C197.278 257.251 196.998 257.512 196.774 257.848C196.55 258.175 196.406 258.553 196.34 258.982ZM206.805 263.126C206.133 263.126 205.521 262.967 204.971 262.65C204.429 262.323 203.995 261.885 203.669 261.334C203.351 260.783 203.193 260.167 203.193 259.486C203.193 258.814 203.347 258.207 203.655 257.666C203.963 257.115 204.378 256.681 204.901 256.364C205.423 256.037 206.007 255.874 206.651 255.874C207.276 255.874 207.836 256.037 208.331 256.364C208.835 256.681 209.231 257.115 209.521 257.666C209.819 258.207 209.969 258.814 209.969 259.486V259.808H204.215C204.271 260.265 204.415 260.676 204.649 261.04C204.891 261.404 205.204 261.693 205.587 261.908C205.969 262.113 206.389 262.216 206.847 262.216C207.211 262.216 207.565 262.16 207.911 262.048C208.256 261.936 208.545 261.777 208.779 261.572L209.423 262.258C209.031 262.547 208.62 262.767 208.191 262.916C207.771 263.056 207.309 263.126 206.805 263.126ZM204.243 258.982H208.933C208.877 258.562 208.737 258.189 208.513 257.862C208.298 257.526 208.027 257.265 207.701 257.078C207.374 256.882 207.015 256.784 206.623 256.784C206.221 256.784 205.853 256.877 205.517 257.064C205.181 257.251 204.901 257.512 204.677 257.848C204.453 258.175 204.308 258.553 204.243 258.982ZM215.293 263.084C215.097 263.084 214.929 263.014 214.789 262.874C214.649 262.734 214.579 262.566 214.579 262.37C214.579 262.174 214.649 262.006 214.789 261.866C214.929 261.726 215.097 261.656 215.293 261.656C215.489 261.656 215.657 261.726 215.797 261.866C215.937 262.006 216.007 262.174 216.007 262.37C216.007 262.566 215.937 262.734 215.797 262.874C215.657 263.014 215.489 263.084 215.293 263.084ZM215.293 257.26C215.097 257.26 214.929 257.19 214.789 257.05C214.649 256.91 214.579 256.742 214.579 256.546C214.579 256.35 214.649 256.182 214.789 256.042C214.929 255.902 215.097 255.832 215.293 255.832C215.489 255.832 215.657 255.902 215.797 256.042C215.937 256.182 216.007 256.35 216.007 256.546C216.007 256.742 215.937 256.91 215.797 257.05C215.657 257.19 215.489 257.26 215.293 257.26ZM220.737 263V262.258L224.657 257.974C224.965 257.638 225.203 257.344 225.371 257.092C225.548 256.831 225.669 256.588 225.735 256.364C225.809 256.14 225.847 255.902 225.847 255.65C225.847 255.155 225.651 254.749 225.259 254.432C224.876 254.105 224.386 253.942 223.789 253.942C223.331 253.942 222.907 254.031 222.515 254.208C222.123 254.385 221.684 254.693 221.199 255.132L220.611 254.432C221.124 253.965 221.642 253.62 222.165 253.396C222.687 253.163 223.233 253.046 223.803 253.046C224.391 253.046 224.913 253.158 225.371 253.382C225.828 253.597 226.187 253.895 226.449 254.278C226.71 254.661 226.841 255.099 226.841 255.594C226.841 255.921 226.799 256.224 226.715 256.504C226.631 256.775 226.481 257.069 226.267 257.386C226.052 257.694 225.744 258.067 225.343 258.506L221.997 262.132L227.051 262.118V263H220.737ZM232.273 263.154C231.489 263.154 230.798 262.939 230.201 262.51C229.603 262.081 229.132 261.488 228.787 260.732C228.451 259.967 228.283 259.089 228.283 258.1C228.283 257.111 228.451 256.238 228.787 255.482C229.132 254.717 229.603 254.119 230.201 253.69C230.798 253.261 231.489 253.046 232.273 253.046C233.057 253.046 233.747 253.261 234.345 253.69C234.942 254.119 235.409 254.717 235.745 255.482C236.09 256.238 236.263 257.111 236.263 258.1C236.263 259.089 236.09 259.967 235.745 260.732C235.409 261.488 234.942 262.081 234.345 262.51C233.747 262.939 233.057 263.154 232.273 263.154ZM232.273 262.244C232.879 262.244 233.402 262.076 233.841 261.74C234.289 261.395 234.634 260.909 234.877 260.284C235.119 259.659 235.241 258.931 235.241 258.1C235.241 257.26 235.119 256.532 234.877 255.916C234.634 255.291 234.289 254.81 233.841 254.474C233.402 254.129 232.879 253.956 232.273 253.956C231.675 253.956 231.153 254.129 230.705 254.474C230.257 254.81 229.911 255.291 229.669 255.916C229.426 256.532 229.305 257.26 229.305 258.1C229.305 258.931 229.426 259.659 229.669 260.284C229.911 260.909 230.257 261.395 230.705 261.74C231.153 262.076 231.675 262.244 232.273 262.244ZM241.542 263.154C240.758 263.154 240.068 262.939 239.47 262.51C238.873 262.081 238.402 261.488 238.056 260.732C237.72 259.967 237.552 259.089 237.552 258.1C237.552 257.111 237.72 256.238 238.056 255.482C238.402 254.717 238.873 254.119 239.47 253.69C240.068 253.261 240.758 253.046 241.542 253.046C242.326 253.046 243.017 253.261 243.614 253.69C244.212 254.119 244.678 254.717 245.014 255.482C245.36 256.238 245.532 257.111 245.532 258.1C245.532 259.089 245.36 259.967 245.014 260.732C244.678 261.488 244.212 262.081 243.614 262.51C243.017 262.939 242.326 263.154 241.542 263.154ZM241.542 262.244C242.149 262.244 242.672 262.076 243.11 261.74C243.558 261.395 243.904 260.909 244.146 260.284C244.389 259.659 244.51 258.931 244.51 258.1C244.51 257.26 244.389 256.532 244.146 255.916C243.904 255.291 243.558 254.81 243.11 254.474C242.672 254.129 242.149 253.956 241.542 253.956C240.945 253.956 240.422 254.129 239.974 254.474C239.526 254.81 239.181 255.291 238.938 255.916C238.696 256.532 238.574 257.26 238.574 258.1C238.574 258.931 238.696 259.659 238.938 260.284C239.181 260.909 239.526 261.395 239.974 261.74C240.422 262.076 240.945 262.244 241.542 262.244ZM246.37 264.918L247.182 261.964H248.302L247.182 264.918H246.37ZM253.34 263V253.2H254.418V263H253.34ZM256.384 263V255.986H257.42V256.812C257.971 256.168 258.708 255.846 259.632 255.846C260.164 255.846 260.631 255.963 261.032 256.196C261.443 256.42 261.76 256.737 261.984 257.148C262.217 257.549 262.334 258.021 262.334 258.562V263H261.312V258.772C261.312 258.147 261.135 257.657 260.78 257.302C260.435 256.938 259.959 256.756 259.352 256.756C258.932 256.756 258.559 256.849 258.232 257.036C257.905 257.223 257.635 257.489 257.42 257.834V263H256.384ZM267.274 263.112C266.62 263.112 266.023 262.953 265.482 262.636C264.95 262.309 264.525 261.875 264.208 261.334C263.9 260.783 263.746 260.167 263.746 259.486C263.746 258.805 263.9 258.193 264.208 257.652C264.525 257.111 264.95 256.681 265.482 256.364C266.023 256.037 266.625 255.874 267.288 255.874C267.698 255.874 268.095 255.944 268.478 256.084C268.86 256.215 269.21 256.411 269.528 256.672V253.2L270.564 252.962V263H269.542V262.258C268.926 262.827 268.17 263.112 267.274 263.112ZM267.372 262.202C267.81 262.202 268.216 262.118 268.59 261.95C268.972 261.773 269.285 261.53 269.528 261.222V257.75C269.285 257.451 268.972 257.218 268.59 257.05C268.216 256.873 267.81 256.784 267.372 256.784C266.886 256.784 266.443 256.901 266.042 257.134C265.65 257.367 265.337 257.689 265.104 258.1C264.88 258.501 264.768 258.959 264.768 259.472C264.768 259.985 264.88 260.447 265.104 260.858C265.337 261.269 265.65 261.595 266.042 261.838C266.443 262.081 266.886 262.202 267.372 262.202ZM275.013 263.14C274.481 263.14 274.01 263.028 273.599 262.804C273.189 262.571 272.867 262.253 272.633 261.852C272.409 261.441 272.297 260.965 272.297 260.424V255.986H273.319V260.214C273.319 260.839 273.497 261.334 273.851 261.698C274.206 262.053 274.682 262.23 275.279 262.23C275.699 262.23 276.073 262.137 276.399 261.95C276.735 261.754 277.006 261.483 277.211 261.138V255.986H278.247V263H277.211V262.188C276.661 262.823 275.928 263.14 275.013 263.14ZM282.249 263.14C281.67 263.14 281.124 263.047 280.611 262.86C280.107 262.664 279.668 262.393 279.295 262.048L279.925 261.376C280.252 261.675 280.611 261.908 281.003 262.076C281.395 262.235 281.796 262.314 282.207 262.314C282.767 262.314 283.224 262.197 283.579 261.964C283.934 261.731 284.111 261.427 284.111 261.054C284.111 260.746 284.004 260.508 283.789 260.34C283.584 260.163 283.257 260.041 282.809 259.976L281.591 259.808C280.891 259.705 280.368 259.495 280.023 259.178C279.687 258.861 279.519 258.431 279.519 257.89C279.519 257.498 279.631 257.148 279.855 256.84C280.079 256.532 280.387 256.289 280.779 256.112C281.18 255.935 281.638 255.846 282.151 255.846C282.664 255.846 283.145 255.921 283.593 256.07C284.041 256.219 284.48 256.453 284.909 256.77L284.363 257.47C283.971 257.199 283.588 257.003 283.215 256.882C282.851 256.751 282.478 256.686 282.095 256.686C281.61 256.686 281.218 256.793 280.919 257.008C280.62 257.223 280.471 257.503 280.471 257.848C280.471 258.165 280.574 258.408 280.779 258.576C280.984 258.735 281.316 258.847 281.773 258.912L282.991 259.08C283.691 259.173 284.214 259.379 284.559 259.696C284.914 260.013 285.091 260.447 285.091 260.998C285.091 261.399 284.965 261.763 284.713 262.09C284.461 262.417 284.12 262.673 283.691 262.86C283.271 263.047 282.79 263.14 282.249 263.14ZM288.878 263.14C288.272 263.14 287.805 262.995 287.478 262.706C287.152 262.417 286.988 261.997 286.988 261.446V256.868H285.476V255.986H286.988V254.208L288.01 253.942V255.986H290.124V256.868H288.01V261.18C288.01 261.553 288.094 261.824 288.262 261.992C288.43 262.151 288.706 262.23 289.088 262.23C289.284 262.23 289.457 262.216 289.606 262.188C289.765 262.16 289.933 262.113 290.11 262.048V262.958C289.933 263.023 289.732 263.07 289.508 263.098C289.294 263.126 289.084 263.14 288.878 263.14ZM291.234 263V255.986H292.27V256.98C292.484 256.616 292.755 256.336 293.082 256.14C293.418 255.935 293.8 255.832 294.23 255.832C294.472 255.832 294.692 255.865 294.888 255.93V256.882C294.766 256.835 294.645 256.803 294.524 256.784C294.402 256.765 294.281 256.756 294.16 256.756C293.73 256.756 293.352 256.882 293.026 257.134C292.708 257.377 292.456 257.731 292.27 258.198V263H291.234ZM296.504 265.996C296.373 265.996 296.247 265.987 296.126 265.968C296.014 265.959 295.921 265.945 295.846 265.926V264.988C296.005 265.025 296.201 265.044 296.434 265.044C297.05 265.044 297.517 264.68 297.834 263.952L298.254 262.986L295.398 255.986H296.546L298.814 261.74L301.264 255.986H302.384L298.884 264.092C298.688 264.54 298.478 264.904 298.254 265.184C298.03 265.464 297.773 265.669 297.484 265.8C297.204 265.931 296.877 265.996 296.504 265.996ZM307.223 263.084C307.027 263.084 306.859 263.014 306.719 262.874C306.579 262.734 306.509 262.566 306.509 262.37C306.509 262.174 306.579 262.006 306.719 261.866C306.859 261.726 307.027 261.656 307.223 261.656C307.419 261.656 307.587 261.726 307.727 261.866C307.867 262.006 307.937 262.174 307.937 262.37C307.937 262.566 307.867 262.734 307.727 262.874C307.587 263.014 307.419 263.084 307.223 263.084ZM307.223 257.26C307.027 257.26 306.859 257.19 306.719 257.05C306.579 256.91 306.509 256.742 306.509 256.546C306.509 256.35 306.579 256.182 306.719 256.042C306.859 255.902 307.027 255.832 307.223 255.832C307.419 255.832 307.587 255.902 307.727 256.042C307.867 256.182 307.937 256.35 307.937 256.546C307.937 256.742 307.867 256.91 307.727 257.05C307.587 257.19 307.419 257.26 307.223 257.26ZM313.058 263V253.2H314.136V262.034H319.974V263H313.058ZM324.15 263.14C323.487 263.14 322.881 262.981 322.33 262.664C321.789 262.337 321.359 261.899 321.042 261.348C320.725 260.797 320.566 260.181 320.566 259.5C320.566 258.819 320.725 258.203 321.042 257.652C321.359 257.101 321.789 256.667 322.33 256.35C322.881 256.023 323.487 255.86 324.15 255.86C324.822 255.86 325.429 256.023 325.97 256.35C326.511 256.667 326.941 257.101 327.258 257.652C327.575 258.203 327.734 258.819 327.734 259.5C327.734 260.181 327.575 260.797 327.258 261.348C326.941 261.899 326.511 262.337 325.97 262.664C325.429 262.981 324.822 263.14 324.15 263.14ZM324.15 262.216C324.626 262.216 325.055 262.095 325.438 261.852C325.83 261.609 326.138 261.283 326.362 260.872C326.595 260.461 326.712 260.004 326.712 259.5C326.712 258.987 326.595 258.529 326.362 258.128C326.138 257.717 325.83 257.391 325.438 257.148C325.055 256.905 324.626 256.784 324.15 256.784C323.674 256.784 323.24 256.905 322.848 257.148C322.465 257.391 322.157 257.717 321.924 258.128C321.7 258.529 321.588 258.987 321.588 259.5C321.588 260.004 321.7 260.461 321.924 260.872C322.157 261.283 322.465 261.609 322.848 261.852C323.24 262.095 323.674 262.216 324.15 262.216ZM332.589 265.996C332.104 265.996 331.623 265.931 331.147 265.8C330.671 265.679 330.237 265.501 329.845 265.268L330.293 264.456C330.713 264.68 331.1 264.843 331.455 264.946C331.819 265.049 332.183 265.1 332.547 265.1C333.21 265.1 333.714 264.941 334.059 264.624C334.404 264.307 334.577 263.84 334.577 263.224V262.244C333.933 262.785 333.191 263.056 332.351 263.056C331.707 263.056 331.119 262.897 330.587 262.58C330.055 262.263 329.63 261.833 329.313 261.292C329.005 260.741 328.851 260.13 328.851 259.458C328.851 258.786 329.005 258.179 329.313 257.638C329.63 257.087 330.055 256.653 330.587 256.336C331.119 256.019 331.716 255.86 332.379 255.86C332.78 255.86 333.168 255.93 333.541 256.07C333.924 256.21 334.274 256.415 334.591 256.686V255.986H335.613V263.21C335.613 264.106 335.352 264.792 334.829 265.268C334.306 265.753 333.56 265.996 332.589 265.996ZM332.435 262.146C332.883 262.146 333.294 262.062 333.667 261.894C334.04 261.726 334.344 261.488 334.577 261.18V257.736C334.344 257.437 334.036 257.204 333.653 257.036C333.28 256.868 332.874 256.784 332.435 256.784C331.95 256.784 331.511 256.901 331.119 257.134C330.736 257.367 330.433 257.689 330.209 258.1C329.985 258.501 329.873 258.954 329.873 259.458C329.873 259.962 329.985 260.419 330.209 260.83C330.442 261.231 330.75 261.553 331.133 261.796C331.525 262.029 331.959 262.146 332.435 262.146ZM337.376 263V255.986H338.412V263H337.376ZM337.894 254.642C337.707 254.642 337.544 254.572 337.404 254.432C337.264 254.292 337.194 254.129 337.194 253.942C337.194 253.746 337.264 253.583 337.404 253.452C337.544 253.312 337.707 253.242 337.894 253.242C338.09 253.242 338.253 253.312 338.384 253.452C338.524 253.583 338.594 253.746 338.594 253.942C338.594 254.129 338.524 254.292 338.384 254.432C338.253 254.572 338.09 254.642 337.894 254.642ZM342.419 263.14C341.84 263.14 341.294 263.047 340.781 262.86C340.277 262.664 339.838 262.393 339.465 262.048L340.095 261.376C340.422 261.675 340.781 261.908 341.173 262.076C341.565 262.235 341.966 262.314 342.377 262.314C342.937 262.314 343.394 262.197 343.749 261.964C344.104 261.731 344.281 261.427 344.281 261.054C344.281 260.746 344.174 260.508 343.959 260.34C343.754 260.163 343.427 260.041 342.979 259.976L341.761 259.808C341.061 259.705 340.538 259.495 340.193 259.178C339.857 258.861 339.689 258.431 339.689 257.89C339.689 257.498 339.801 257.148 340.025 256.84C340.249 256.532 340.557 256.289 340.949 256.112C341.35 255.935 341.808 255.846 342.321 255.846C342.834 255.846 343.315 255.921 343.763 256.07C344.211 256.219 344.65 256.453 345.079 256.77L344.533 257.47C344.141 257.199 343.758 257.003 343.385 256.882C343.021 256.751 342.648 256.686 342.265 256.686C341.78 256.686 341.388 256.793 341.089 257.008C340.79 257.223 340.641 257.503 340.641 257.848C340.641 258.165 340.744 258.408 340.949 258.576C341.154 258.735 341.486 258.847 341.943 258.912L343.161 259.08C343.861 259.173 344.384 259.379 344.729 259.696C345.084 260.013 345.261 260.447 345.261 260.998C345.261 261.399 345.135 261.763 344.883 262.09C344.631 262.417 344.29 262.673 343.861 262.86C343.441 263.047 342.96 263.14 342.419 263.14ZM349.048 263.14C348.442 263.14 347.975 262.995 347.648 262.706C347.322 262.417 347.158 261.997 347.158 261.446V256.868H345.646V255.986H347.158V254.208L348.18 253.942V255.986H350.294V256.868H348.18V261.18C348.18 261.553 348.264 261.824 348.432 261.992C348.6 262.151 348.876 262.23 349.258 262.23C349.454 262.23 349.627 262.216 349.776 262.188C349.935 262.16 350.103 262.113 350.28 262.048V262.958C350.103 263.023 349.902 263.07 349.678 263.098C349.464 263.126 349.254 263.14 349.048 263.14ZM351.403 263V255.986H352.439V263H351.403ZM351.921 254.642C351.735 254.642 351.571 254.572 351.431 254.432C351.291 254.292 351.221 254.129 351.221 253.942C351.221 253.746 351.291 253.583 351.431 253.452C351.571 253.312 351.735 253.242 351.921 253.242C352.117 253.242 352.281 253.312 352.411 253.452C352.551 253.583 352.621 253.746 352.621 253.942C352.621 254.129 352.551 254.292 352.411 254.432C352.281 254.572 352.117 254.642 351.921 254.642ZM357.454 263.126C356.792 263.126 356.19 262.967 355.648 262.65C355.107 262.323 354.678 261.885 354.36 261.334C354.043 260.783 353.884 260.167 353.884 259.486C353.884 258.805 354.043 258.193 354.36 257.652C354.678 257.101 355.107 256.663 355.648 256.336C356.19 256.009 356.792 255.846 357.454 255.846C357.968 255.846 358.462 255.944 358.938 256.14C359.414 256.327 359.834 256.597 360.198 256.952L359.54 257.708C359.26 257.409 358.938 257.185 358.574 257.036C358.22 256.877 357.851 256.798 357.468 256.798C356.992 256.798 356.558 256.919 356.166 257.162C355.784 257.395 355.476 257.717 355.242 258.128C355.018 258.529 354.906 258.982 354.906 259.486C354.906 259.99 355.018 260.447 355.242 260.858C355.476 261.269 355.788 261.595 356.18 261.838C356.572 262.071 357.006 262.188 357.482 262.188C357.865 262.188 358.224 262.113 358.56 261.964C358.906 261.815 359.228 261.595 359.526 261.306L360.17 262.006C359.797 262.361 359.377 262.636 358.91 262.832C358.444 263.028 357.958 263.126 357.454 263.126ZM363.692 263.14C363.114 263.14 362.568 263.047 362.054 262.86C361.55 262.664 361.112 262.393 360.738 262.048L361.368 261.376C361.695 261.675 362.054 261.908 362.446 262.076C362.838 262.235 363.24 262.314 363.65 262.314C364.21 262.314 364.668 262.197 365.022 261.964C365.377 261.731 365.554 261.427 365.554 261.054C365.554 260.746 365.447 260.508 365.232 260.34C365.027 260.163 364.7 260.041 364.252 259.976L363.034 259.808C362.334 259.705 361.812 259.495 361.466 259.178C361.13 258.861 360.962 258.431 360.962 257.89C360.962 257.498 361.074 257.148 361.298 256.84C361.522 256.532 361.83 256.289 362.222 256.112C362.624 255.935 363.081 255.846 363.594 255.846C364.108 255.846 364.588 255.921 365.036 256.07C365.484 256.219 365.923 256.453 366.352 256.77L365.806 257.47C365.414 257.199 365.032 257.003 364.658 256.882C364.294 256.751 363.921 256.686 363.538 256.686C363.053 256.686 362.661 256.793 362.362 257.008C362.064 257.223 361.914 257.503 361.914 257.848C361.914 258.165 362.017 258.408 362.222 258.576C362.428 258.735 362.759 258.847 363.216 258.912L364.434 259.08C365.134 259.173 365.657 259.379 366.002 259.696C366.357 260.013 366.534 260.447 366.534 260.998C366.534 261.399 366.408 261.763 366.156 262.09C365.904 262.417 365.564 262.673 365.134 262.86C364.714 263.047 364.234 263.14 363.692 263.14ZM368.432 263.084C368.236 263.084 368.068 263.014 367.928 262.874C367.788 262.734 367.718 262.566 367.718 262.37C367.718 262.174 367.788 262.006 367.928 261.866C368.068 261.726 368.236 261.656 368.432 261.656C368.628 261.656 368.796 261.726 368.936 261.866C369.076 262.006 369.146 262.174 369.146 262.37C369.146 262.566 369.076 262.734 368.936 262.874C368.796 263.014 368.628 263.084 368.432 263.084ZM371.932 263.084C371.736 263.084 371.568 263.014 371.428 262.874C371.288 262.734 371.218 262.566 371.218 262.37C371.218 262.174 371.288 262.006 371.428 261.866C371.568 261.726 371.736 261.656 371.932 261.656C372.128 261.656 372.296 261.726 372.436 261.866C372.576 262.006 372.646 262.174 372.646 262.37C372.646 262.566 372.576 262.734 372.436 262.874C372.296 263.014 372.128 263.084 371.932 263.084ZM375.432 263.084C375.236 263.084 375.068 263.014 374.928 262.874C374.788 262.734 374.718 262.566 374.718 262.37C374.718 262.174 374.788 262.006 374.928 261.866C375.068 261.726 375.236 261.656 375.432 261.656C375.628 261.656 375.796 261.726 375.936 261.866C376.076 262.006 376.146 262.174 376.146 262.37C376.146 262.566 376.076 262.734 375.936 262.874C375.796 263.014 375.628 263.084 375.432 263.084Z" fill="#1F3133"/>
<g opacity="0.5">
<path d="M550.6 242.458L545.167 247.892C544.525 248.533 543.475 248.533 542.833 247.892L537.4 242.458" stroke="#1F3133" stroke-width="1.5" stroke-miterlimit="10" stroke-linecap="round" stroke-linejoin="round"/>
</g>
</g>
</g>
<defs>
<filter id="filter0_f_22_1032" x="-116" y="-51" width="484" height="484" filterUnits="userSpaceOnUse" color-interpolation-filters="sRGB">
<feFlood flood-opacity="0" result="BackgroundImageFix"/>
<feBlend mode="normal" in="SourceGraphic" in2="BackgroundImageFix" result="shape"/>
<feGaussianBlur stdDeviation="75" result="effect1_foregroundBlur_22_1032"/>
</filter>
<filter id="filter1_d_22_1032" x="82" y="100" width="506" height="110" filterUnits="userSpaceOnUse" color-interpolation-filters="sRGB">
<feFlood flood-opacity="0" result="BackgroundImageFix"/>
<feColorMatrix in="SourceAlpha" type="matrix" values="0 0 0 0 0 0 0 0 0 0 0 0 0 0 0 0 0 0 127 0" result="hardAlpha"/>
<feOffset dx="2" dy="8"/>
<feGaussianBlur stdDeviation="8"/>
<feComposite in2="hardAlpha" operator="out"/>
<feColorMatrix type="matrix" values="0 0 0 0 0.808333 0 0 0 0 0.808333 0 0 0 0 0.808333 0 0 0 0.06 0"/>
<feBlend mode="normal" in2="BackgroundImageFix" result="effect1_dropShadow_22_1032"/>
<feBlend mode="normal" in="SourceGraphic" in2="effect1_dropShadow_22_1032" result="shape"/>
</filter>
<filter id="filter2_d_22_1032" x="82" y="198" width="506" height="110" filterUnits="userSpaceOnUse" color-interpolation-filters="sRGB">
<feFlood flood-opacity="0" result="BackgroundImageFix"/>
<feColorMatrix in="SourceAlpha" type="matrix" values="0 0 0 0 0 0 0 0 0 0 0 0 0 0 0 0 0 0 127 0" result="hardAlpha"/>
<feOffset dx="2" dy="8"/>
<feGaussianBlur stdDeviation="8"/>
<feComposite in2="hardAlpha" operator="out"/>
<feColorMatrix type="matrix" values="0 0 0 0 0.808333 0 0 0 0 0.808333 0 0 0 0 0.808333 0 0 0 0.06 0"/>
<feBlend mode="normal" in2="BackgroundImageFix" result="effect1_dropShadow_22_1032"/>
<feBlend mode="normal" in="SourceGraphic" in2="effect1_dropShadow_22_1032" result="shape"/>
</filter>
<linearGradient id="paint0_linear_22_1032" x1="48" y1="-7.33296e-06" x2="543.5" y2="343.5" gradientUnits="userSpaceOnUse">
<stop stop-color="#FEF7F0"/>
<stop offset="1" stop-color="#FFFCFA"/>
</linearGradient>
<clipPath id="clip0_22_1032">
<rect width="618" height="376" fill="white"/>
</clipPath>
</defs>
</svg>
