<svg width="120" height="27" viewBox="0 0 120 27" fill="none" xmlns="http://www.w3.org/2000/svg">
<path d="M119.826 9.18737L115.746 9.18737C114.205 9.18737 113.026 9.60671 112.21 10.4454C111.394 11.2614 110.986 12.4854 110.986 14.1174L110.986 24.4874L106.226 24.4874L106.226 14.1174C106.226 11.8054 106.952 10.0147 108.402 8.74537C109.876 7.45337 111.984 6.80737 114.726 6.80737L119.826 6.80737L119.826 9.18737Z" fill="#1F3133"/>
<path d="M92.1096 22.9572C92.835 22.9572 93.515 22.8212 94.1496 22.5492C94.7843 22.2772 95.3396 21.8579 95.8156 21.2912C96.2916 20.7019 96.6656 19.9425 96.9376 19.0132C97.2323 18.0839 97.3796 16.9619 97.3796 15.6472C97.3796 14.3325 97.2323 13.2105 96.9376 12.2812C96.6656 11.3519 96.2916 10.6039 95.8156 10.0372C95.3396 9.44786 94.7843 9.0172 94.1496 8.7452C93.515 8.4732 92.835 8.3372 92.1096 8.3372C91.3843 8.3372 90.7043 8.4732 90.0696 8.7452C89.435 9.0172 88.8796 9.44786 88.4036 10.0372C87.9276 10.6039 87.5423 11.3519 87.2476 12.2812C86.9756 13.2105 86.8396 14.3325 86.8396 15.6472C86.8396 16.9619 86.9756 18.0839 87.2476 19.0132C87.5423 19.9425 87.9276 20.7019 88.4036 21.2912C88.8796 21.8579 89.435 22.2772 90.0696 22.5492C90.7043 22.8212 91.3843 22.9572 92.1096 22.9572ZM92.1096 6.1272C93.6283 6.1272 95.0223 6.34253 96.2916 6.7732C97.5836 7.1812 98.683 7.7932 99.5896 8.6092C100.496 9.40253 101.199 10.3999 101.698 11.6012C102.219 12.7799 102.48 14.1285 102.48 15.6472C102.48 17.1885 102.219 18.5485 101.698 19.7272C101.199 20.9059 100.496 21.9032 99.5896 22.7192C98.683 23.5125 97.5836 24.1132 96.2916 24.5212C95.0223 24.9519 93.6283 25.1672 92.1096 25.1672C90.5683 25.1672 89.163 24.9519 87.8936 24.5212C86.6243 24.1132 85.5363 23.5125 84.6296 22.7192C83.723 21.9032 83.009 20.9059 82.4876 19.7272C81.989 18.5485 81.7396 17.1885 81.7396 15.6472C81.7396 14.1285 81.989 12.7799 82.4876 11.6012C83.009 10.3999 83.723 9.40253 84.6296 8.6092C85.5363 7.7932 86.6243 7.1812 87.8936 6.7732C89.163 6.34253 90.5683 6.1272 92.1096 6.1272Z" fill="#1F3133"/>
<path d="M67.9829 9.18719L64.7529 9.18719L64.7529 6.80719L67.9829 6.80719L67.9829 1.36719L72.7429 1.36719L72.7429 6.80719L78.0129 6.80719L78.0129 9.18719L72.7429 9.18719L72.7429 18.0272C72.7429 18.8885 72.8336 19.6252 73.0149 20.2372C73.2189 20.8265 73.4796 21.3139 73.7969 21.6992C74.1369 22.0619 74.5223 22.3339 74.9529 22.5152C75.3836 22.6965 75.8369 22.7872 76.3129 22.7872C76.9929 22.7872 77.6503 22.6852 78.2849 22.4812C78.9196 22.2545 79.4523 22.0165 79.8829 21.7672L80.9029 23.9772C80.2229 24.3172 79.4409 24.6005 78.5569 24.8272C77.6956 25.0539 76.8343 25.1672 75.9729 25.1672C73.4116 25.1672 71.4396 24.5325 70.0569 23.2632C68.6743 21.9939 67.9829 20.2485 67.9829 18.0272L67.9829 9.18719Z" fill="#1F3133"/>
<path d="M55.719 6.1272C56.4443 6.1272 57.1697 6.1952 57.895 6.3312C58.6203 6.44453 59.3117 6.61453 59.969 6.8412C60.649 7.0452 61.2723 7.30586 61.839 7.6232C62.4283 7.94053 62.9383 8.29186 63.369 8.6772L62.009 10.7172C61.0797 10.0145 60.1277 9.47053 59.153 9.0852C58.201 8.69986 57.1697 8.5072 56.059 8.5072C55.243 8.5072 54.495 8.6432 53.815 8.9152C53.135 9.16453 52.5457 9.58386 52.047 10.1732C51.5483 10.7399 51.1517 11.4765 50.857 12.3832C50.585 13.2899 50.449 14.3779 50.449 15.6472C50.449 16.9165 50.585 18.0045 50.857 18.9112C51.1517 19.8179 51.5597 20.5659 52.081 21.1552C52.6023 21.7219 53.2257 22.1412 53.951 22.4132C54.699 22.6625 55.515 22.7872 56.399 22.7872C57.5097 22.7872 58.541 22.5945 59.493 22.2092C60.4677 21.8239 61.4197 21.2799 62.349 20.5772L63.709 22.6172C63.2783 23.0025 62.7683 23.3539 62.179 23.6712C61.6123 23.9885 60.989 24.2605 60.309 24.4872C59.6517 24.6912 58.9603 24.8499 58.235 24.9632C57.5097 25.0992 56.7843 25.1672 56.059 25.1672C54.4497 25.1672 52.9763 24.9519 51.639 24.5212C50.3243 24.1132 49.2023 23.5125 48.273 22.7192C47.3437 21.9032 46.6183 20.9059 46.097 19.7272C45.5983 18.5485 45.349 17.1885 45.349 15.6472C45.349 14.1285 45.5983 12.7799 46.097 11.6012C46.6183 10.3999 47.3323 9.40253 48.239 8.6092C49.1457 7.7932 50.2337 7.1812 51.503 6.7732C52.7723 6.34253 54.1777 6.1272 55.719 6.1272Z" fill="#1F3133"/>
<path d="M33.6217 22.7872C34.7323 22.7872 35.7637 22.5945 36.7157 22.2092C37.6903 21.8239 38.6423 21.2799 39.5717 20.5772L40.9317 22.6172C40.501 23.0025 39.991 23.3539 39.4017 23.6712C38.835 23.9885 38.2117 24.2605 37.5317 24.4872C36.8743 24.6912 36.183 24.8499 35.4577 24.9632C34.7323 25.0992 34.007 25.1672 33.2817 25.1672C31.6723 25.1672 30.199 24.9519 28.8617 24.5212C27.547 24.1132 26.425 23.5125 25.4957 22.7192C24.5663 21.9032 23.841 20.9059 23.3197 19.7272C22.821 18.5485 22.5717 17.1885 22.5717 15.6472C22.5717 14.1285 22.8097 12.7799 23.2857 11.6012C23.7843 10.3999 24.4643 9.40253 25.3257 8.6092C26.2097 7.7932 27.2523 7.1812 28.4537 6.7732C29.655 6.34253 30.981 6.1272 32.4317 6.1272C33.7917 6.1272 35.0723 6.3312 36.2737 6.7392C37.475 7.1472 38.5177 7.74786 39.4017 8.5412C40.2857 9.31186 40.9883 10.2525 41.5097 11.3632C42.031 12.4739 42.2917 13.7319 42.2917 15.1372L42.2917 17.5172L27.7737 17.5172C28.0457 19.3985 28.6917 20.7472 29.7117 21.5632C30.7543 22.3792 32.0577 22.7872 33.6217 22.7872ZM32.4317 8.3372C31.7743 8.3372 31.1623 8.46186 30.5957 8.7112C30.029 8.96053 29.5303 9.3572 29.0997 9.9012C28.6917 10.4452 28.3517 11.1479 28.0797 12.0092C27.8303 12.8705 27.6943 13.9132 27.6717 15.1372L37.1917 15.1372C37.1917 13.9585 37.0557 12.9385 36.7837 12.0772C36.5117 11.2159 36.149 10.5132 35.6957 9.9692C35.265 9.40253 34.755 8.99453 34.1657 8.7452C33.599 8.4732 33.021 8.3372 32.4317 8.3372Z" fill="#1F3133"/>
<path d="M15.035 24.5525L11.0263 24.5901L11.0263 21.6483L16.94 6.53346L21.7859 6.48719L15.035 24.5525Z" fill="#1F3133"/>
<path d="M11.9197 24.5823L7.41993 24.6252L6.26025 21.6938L11.0263 21.6483L12.0928 24.5806L11.9197 24.5823Z" fill="#1F3133"/>
<path d="M5.23696 19.1074L0.325317 6.69214L5.17125 6.64588L10.0168 19.0617L5.23696 19.1074Z" fill="#1F3133"/>
</svg>
